<svg width="30" height="30" viewBox="0 0 30 30" fill="none" xmlns="http://www.w3.org/2000/svg">
<path d="M14.5625 18.3125C14.6875 18.4375 14.8333 18.5 15 18.5C15.1667 18.5 15.3125 18.4375 15.4375 18.3125L18.9375 14.8125C19.125 14.625 19.1721 14.4013 19.0787 14.1413C18.9854 13.8813 18.7925 13.7508 18.5 13.75H11.5C11.2083 13.75 11.0158 13.8804 10.9225 14.1413C10.8292 14.4021 10.8758 14.6258 11.0625 14.8125L14.5625 18.3125ZM15 27.5C13.2708 27.5 11.6458 27.1717 10.125 26.515C8.60417 25.8583 7.28125 24.9679 6.15625 23.8438C5.03125 22.7188 4.14083 21.3958 3.485 19.875C2.82917 18.3542 2.50083 16.7292 2.5 15C2.5 13.2708 2.82833 11.6458 3.485 10.125C4.14167 8.60417 5.03208 7.28125 6.15625 6.15625C7.28125 5.03125 8.60417 4.14083 10.125 3.485C11.6458 2.82917 13.2708 2.50083 15 2.5C16.7292 2.5 18.3542 2.82833 19.875 3.485C21.3958 4.14167 22.7188 5.03208 23.8437 6.15625C24.9687 7.28125 25.8596 8.60417 26.5162 10.125C27.1729 11.6458 27.5008 13.2708 27.5 15C27.5 16.7292 27.1717 18.3542 26.515 19.875C25.8583 21.3958 24.9679 22.7188 23.8437 23.8438C22.7187 24.9688 21.3958 25.8596 19.875 26.5163C18.3542 27.1729 16.7292 27.5008 15 27.5Z" fill="#F2994A"/>
</svg>
