<svg width="18" height="18" viewBox="0 0 18 18" fill="none" xmlns="http://www.w3.org/2000/svg">
<path d="M8.70832 11.2084C8.79166 11.2917 8.88888 11.3334 8.99999 11.3334C9.1111 11.3334 9.20832 11.2917 9.29166 11.2084L11.625 8.87508C11.75 8.75008 11.7814 8.60091 11.7192 8.42758C11.6569 8.25425 11.5283 8.1673 11.3333 8.16675L6.66666 8.16675C6.47221 8.16675 6.34388 8.25369 6.28166 8.42758C6.21943 8.60147 6.25055 8.75064 6.37499 8.87508L8.70832 11.2084ZM8.99999 17.3334C7.84721 17.3334 6.76388 17.1145 5.74999 16.6767C4.7361 16.239 3.85416 15.6454 3.10416 14.8959C2.35416 14.1459 1.76055 13.264 1.32332 12.2501C0.886101 11.2362 0.667212 10.1529 0.666656 9.00008C0.666656 7.8473 0.885545 6.76397 1.32332 5.75008C1.7611 4.73619 2.35471 3.85425 3.10416 3.10425C3.85416 2.35425 4.7361 1.76064 5.74999 1.32341C6.76388 0.886193 7.84721 0.667304 8.99999 0.666748C10.1528 0.666748 11.2361 0.885637 12.25 1.32341C13.2639 1.76119 14.1458 2.3548 14.8958 3.10425C15.6458 3.85425 16.2397 4.73619 16.6775 5.75008C17.1153 6.76397 17.3339 7.8473 17.3333 9.00008C17.3333 10.1529 17.1144 11.2362 16.6767 12.2501C16.2389 13.264 15.6453 14.1459 14.8958 14.8959C14.1458 15.6459 13.2639 16.2398 12.25 16.6776C11.2361 17.1154 10.1528 17.334 8.99999 17.3334Z" fill="#9394CB"/>
</svg>
