<svg width="10" height="10" viewBox="0 0 10 10" fill="none" xmlns="http://www.w3.org/2000/svg">
<path d="M9.50489 3.55118L4.48887 8.5668C4.43083 8.62485 4.36193 8.6709 4.28609 8.70232C4.21025 8.73374 4.12897 8.74991 4.04688 8.74991C3.96479 8.74991 3.88351 8.73374 3.80767 8.70232C3.73183 8.6709 3.66293 8.62485 3.60489 8.5668L0.80723 5.7543C0.690228 5.63712 0.624512 5.47829 0.624512 5.3127C0.624512 5.14711 0.690228 4.98828 0.80723 4.8711L1.74473 3.9336C1.86154 3.81676 2.01986 3.75093 2.18507 3.75049C2.35028 3.75005 2.50894 3.81504 2.62637 3.93126L4.05762 5.30899L4.06192 5.31329L7.68418 1.74415C7.80132 1.6275 7.95989 1.56201 8.1252 1.56201C8.29051 1.56201 8.44908 1.6275 8.56621 1.74415L9.50371 2.66446C9.56225 2.72247 9.60874 2.79148 9.6405 2.86753C9.67227 2.94358 9.68867 3.02516 9.68878 3.10757C9.68889 3.18999 9.6727 3.27161 9.64114 3.34774C9.60958 3.42387 9.56327 3.49301 9.50489 3.55118Z" fill="white"/>
</svg>
