<svg width="20" height="20" viewBox="0 0 20 20" fill="none" xmlns="http://www.w3.org/2000/svg">
<path fill-rule="evenodd" clip-rule="evenodd" d="M10.24 17.4237L10.2417 17.4229L10.2459 17.42L10.2584 17.4104L10.3075 17.375C10.3492 17.3442 10.41 17.2992 10.4867 17.24C10.64 17.1225 10.8575 16.9496 11.1171 16.7275C11.7985 16.1451 12.4357 15.5128 13.0234 14.8358C14.4017 13.2417 15.8334 10.9662 15.8334 8.365C15.8334 6.81083 15.2192 5.31917 14.1259 4.21917C13.5855 3.67475 12.9427 3.24258 12.2346 2.94753C11.5266 2.65249 10.7671 2.50039 10 2.5C9.23296 2.50034 8.47354 2.65237 7.76546 2.94734C7.05738 3.24231 6.41463 3.6744 5.87419 4.21875C4.77978 5.32126 4.16595 6.81195 4.16669 8.36542C4.16669 10.9662 5.59835 13.2417 6.97669 14.8358C7.56434 15.5128 8.20152 16.1451 8.88294 16.7275C9.14294 16.9496 9.36002 17.1225 9.51336 17.24C9.58856 17.298 9.66454 17.3549 9.74127 17.4108L9.7546 17.42L9.75835 17.4229L9.76002 17.4237C9.90377 17.525 10.0963 17.525 10.24 17.4237ZM12.0834 8.33333C12.0834 8.88587 11.8639 9.41577 11.4732 9.80647C11.0825 10.1972 10.5526 10.4167 10 10.4167C9.44749 10.4167 8.91758 10.1972 8.52688 9.80647C8.13618 9.41577 7.91669 8.88587 7.91669 8.33333C7.91669 7.7808 8.13618 7.2509 8.52688 6.86019C8.91758 6.46949 9.44749 6.25 10 6.25C10.5526 6.25 11.0825 6.46949 11.4732 6.86019C11.8639 7.2509 12.0834 7.7808 12.0834 8.33333Z" fill="#2E31C5"/>
</svg>
