<svg width="16" height="16" viewBox="0 0 16 16" fill="none" xmlns="http://www.w3.org/2000/svg">
<path d="M7.76668 9.76668C7.83334 9.83334 7.91112 9.86668 8.00001 9.86668C8.0889 9.86668 8.16668 9.83334 8.23334 9.76668L10.1 7.90001C10.2 7.80001 10.2251 7.68068 10.1753 7.54201C10.1256 7.40334 10.0227 7.33379 9.86668 7.33334H6.13334C5.97779 7.33334 5.87512 7.4029 5.82534 7.54201C5.77557 7.68112 5.80046 7.80046 5.90001 7.90001L7.76668 9.76668ZM8.00001 14.6667C7.07779 14.6667 6.21112 14.4916 5.40001 14.1413C4.5889 13.7911 3.88334 13.3162 3.28334 12.7167C2.68334 12.1167 2.20845 11.4111 1.85868 10.6C1.5089 9.7889 1.33379 8.92223 1.33334 8.00001C1.33334 7.07779 1.50845 6.21112 1.85868 5.40001C2.2089 4.5889 2.68379 3.88334 3.28334 3.28334C3.88334 2.68334 4.5889 2.20845 5.40001 1.85868C6.21112 1.5089 7.07779 1.33379 8.00001 1.33334C8.92223 1.33334 9.7889 1.50845 10.6 1.85868C11.4111 2.2089 12.1167 2.68379 12.7167 3.28334C13.3167 3.88334 13.7918 4.5889 14.142 5.40001C14.4922 6.21112 14.6671 7.07779 14.6667 8.00001C14.6667 8.92223 14.4916 9.7889 14.1413 10.6C13.7911 11.4111 13.3162 12.1167 12.7167 12.7167C12.1167 13.3167 11.4111 13.7918 10.6 14.142C9.7889 14.4922 8.92223 14.6671 8.00001 14.6667Z" fill="#F2994A"/>
</svg>
