<svg width="20" height="20" viewBox="0 0 20 20" fill="none" xmlns="http://www.w3.org/2000/svg">
<path d="M9.99999 2.5C10.884 2.5 11.7319 2.85119 12.357 3.47631C12.9821 4.10143 13.3333 4.94928 13.3333 5.83333C13.3333 6.44167 13.175 7.00833 12.8833 7.5H15C15.7917 7.5 16.4583 8.05833 16.625 8.8C18.3 15.475 18.3333 15.65 18.3333 15.8333C18.3333 16.2754 18.1577 16.6993 17.8452 17.0118C17.5326 17.3244 17.1087 17.5 16.6667 17.5H3.33332C2.8913 17.5 2.46737 17.3244 2.15481 17.0118C1.84225 16.6993 1.66666 16.2754 1.66666 15.8333C1.66666 15.65 1.69999 15.475 3.37499 8.8C3.54166 8.05833 4.20832 7.5 4.99999 7.5H7.11666C6.81876 6.99533 6.66325 6.41935 6.66666 5.83333C6.66666 4.94928 7.01785 4.10143 7.64297 3.47631C8.26809 2.85119 9.11593 2.5 9.99999 2.5ZM9.99999 4.16667C9.55796 4.16667 9.13404 4.34226 8.82148 4.65482C8.50892 4.96738 8.33332 5.39131 8.33332 5.83333C8.33332 6.27536 8.50892 6.69928 8.82148 7.01184C9.13404 7.3244 9.55796 7.5 9.99999 7.5C10.442 7.5 10.8659 7.3244 11.1785 7.01184C11.4911 6.69928 11.6667 6.27536 11.6667 5.83333C11.6667 5.39131 11.4911 4.96738 11.1785 4.65482C10.8659 4.34226 10.442 4.16667 9.99999 4.16667Z" fill="#2E31C5"/>
</svg>
