<svg width="20" height="20" viewBox="0 0 20 20" fill="none" xmlns="http://www.w3.org/2000/svg">
<path d="M12.2087 10.2913C12.292 10.208 12.3337 10.1108 12.3337 9.99967C12.3337 9.88856 12.292 9.79134 12.2087 9.70801L9.87533 7.37467C9.75033 7.24967 9.60116 7.21829 9.42782 7.28051C9.25449 7.34273 9.16755 7.47134 9.16699 7.66634L9.16699 12.333C9.16699 12.5275 9.25394 12.6558 9.42782 12.718C9.60171 12.7802 9.75088 12.7491 9.87533 12.6247L12.2087 10.2913ZM18.3337 9.99967C18.3337 11.1525 18.1148 12.2358 17.677 13.2497C17.2392 14.2636 16.6456 15.1455 15.8962 15.8955C15.1462 16.6455 14.2642 17.2391 13.2503 17.6763C12.2364 18.1136 11.1531 18.3325 10.0003 18.333C8.84755 18.333 7.76421 18.1141 6.75033 17.6763C5.73644 17.2386 4.85449 16.645 4.10449 15.8955C3.35449 15.1455 2.76088 14.2636 2.32366 13.2497C1.88644 12.2358 1.66755 11.1525 1.66699 9.99967C1.66699 8.8469 1.88588 7.76356 2.32366 6.74968C2.76144 5.73579 3.35505 4.85384 4.10449 4.10384C4.85449 3.35384 5.73644 2.75995 6.75033 2.32218C7.76421 1.8844 8.84755 1.66579 10.0003 1.66634C11.1531 1.66634 12.2364 1.88523 13.2503 2.32301C14.2642 2.76079 15.1462 3.3544 15.8962 4.10384C16.6462 4.85384 17.24 5.73579 17.6778 6.74967C18.1156 7.76356 18.3342 8.8469 18.3337 9.99967Z" fill="#2E31C5"/>
</svg>
