<svg width="70" height="70" viewBox="0 0 70 70" fill="none" xmlns="http://www.w3.org/2000/svg">
<path d="M22.6041 7.29175C22.6041 6.08363 21.6247 5.10425 20.4166 5.10425C19.2085 5.10425 18.2291 6.08363 18.2291 7.29175V11.8979C14.031 12.2341 11.2751 13.0591 9.25034 15.0838C7.22559 17.1086 6.40058 19.8645 6.06442 24.0626H63.9354C63.5993 19.8645 62.7742 17.1086 60.7495 15.0838C58.7247 13.0591 55.9688 12.2341 51.7707 11.8979V7.29175C51.7707 6.08363 50.7914 5.10425 49.5832 5.10425C48.3751 5.10425 47.3957 6.08363 47.3957 7.29175V11.7044C45.4554 11.6667 43.2804 11.6667 40.8333 11.6667H29.1666C26.7194 11.6667 24.5444 11.6667 22.6041 11.7044V7.29175Z" fill="#2E31C5"/>
<path fill-rule="evenodd" clip-rule="evenodd" d="M5.83325 35.0001C5.83325 32.5529 5.83325 30.3779 5.87088 28.4376H64.129C64.1666 30.3779 64.1666 32.5529 64.1666 35.0001V40.8334C64.1666 51.8329 64.1666 57.3326 60.7495 60.7497C57.3324 64.1667 51.8327 64.1667 40.8333 64.1667H29.1666C18.1671 64.1667 12.6674 64.1667 9.25034 60.7497C5.83325 57.3326 5.83325 51.8329 5.83325 40.8334V35.0001ZM49.5832 40.8334C51.1941 40.8334 52.4999 39.5276 52.4999 37.9167C52.4999 36.3059 51.1941 35.0001 49.5832 35.0001C47.9724 35.0001 46.6666 36.3059 46.6666 37.9167C46.6666 39.5276 47.9724 40.8334 49.5832 40.8334ZM49.5832 52.5001C51.1941 52.5001 52.4999 51.1942 52.4999 49.5834C52.4999 47.9726 51.1941 46.6667 49.5832 46.6667C47.9724 46.6667 46.6666 47.9726 46.6666 49.5834C46.6666 51.1942 47.9724 52.5001 49.5832 52.5001ZM37.9166 37.9167C37.9166 39.5276 36.6107 40.8334 34.9999 40.8334C33.3891 40.8334 32.0833 39.5276 32.0833 37.9167C32.0833 36.3059 33.3891 35.0001 34.9999 35.0001C36.6107 35.0001 37.9166 36.3059 37.9166 37.9167ZM37.9166 49.5834C37.9166 51.1942 36.6107 52.5001 34.9999 52.5001C33.3891 52.5001 32.0833 51.1942 32.0833 49.5834C32.0833 47.9726 33.3891 46.6667 34.9999 46.6667C36.6107 46.6667 37.9166 47.9726 37.9166 49.5834ZM20.4166 40.8334C22.0274 40.8334 23.3333 39.5276 23.3333 37.9167C23.3333 36.3059 22.0274 35.0001 20.4166 35.0001C18.8058 35.0001 17.4999 36.3059 17.4999 37.9167C17.4999 39.5276 18.8058 40.8334 20.4166 40.8334ZM20.4166 52.5001C22.0274 52.5001 23.3333 51.1942 23.3333 49.5834C23.3333 47.9726 22.0274 46.6667 20.4166 46.6667C18.8058 46.6667 17.4999 47.9726 17.4999 49.5834C17.4999 51.1942 18.8058 52.5001 20.4166 52.5001Z" fill="#2E31C5"/>
</svg>
