<svg width="70" height="70" viewBox="0 0 70 70" fill="none" xmlns="http://www.w3.org/2000/svg">
<path d="M61.25 49.0845V32.5566C61.25 29.5128 61.25 27.9909 60.4242 26.8451C59.7571 25.9196 58.6867 25.4277 56.7778 24.7654C56.3874 29.4502 54.8359 34.2344 52.3994 38.4216C49.5624 43.2972 45.3494 47.6563 39.9495 50.012C36.8026 51.3848 33.1974 51.3848 30.0505 50.012C24.6506 47.6563 20.4376 43.2972 17.6006 38.4216C15.7525 35.2456 14.4136 31.7261 13.7043 28.1671C12.5886 28.0028 11.7323 28.0871 10.9934 28.4993C10.6986 28.6638 10.4238 28.8619 10.1745 29.0895C8.75 30.3906 8.75 32.8098 8.75 37.6483V52.0266C8.75 55.0704 8.75 56.5923 9.57582 57.738C10.4016 58.8838 11.8454 59.3651 14.733 60.3276L15.8517 60.7005C20.4513 62.2337 22.751 63.0003 25.1034 63.0047C25.8119 63.0061 26.5196 62.9558 27.2208 62.8542C29.5489 62.5172 31.736 61.4236 36.1101 59.2365C39.4623 57.5604 41.1384 56.7224 42.9188 56.3336C43.5436 56.1971 44.1768 56.1019 44.8141 56.0486C46.6302 55.8966 48.4625 56.202 52.1271 56.8128C55.841 57.4318 57.6979 57.7412 59.0537 56.9627C59.5141 56.6983 59.9226 56.3522 60.2591 55.9415C61.25 54.7322 61.25 52.8496 61.25 49.0845Z" fill="#2E31C5"/>
<path fill-rule="evenodd" clip-rule="evenodd" d="M35 5.83325C25.335 5.83325 17.5 13.2769 17.5 22.4591C17.5 31.5694 23.0854 42.2003 31.7998 46.0019C33.8313 46.8881 36.1687 46.8881 38.2002 46.0019C46.9146 42.2003 52.5 31.5694 52.5 22.4591C52.5 13.2769 44.665 5.83325 35 5.83325ZM35 29.1666C38.2217 29.1666 40.8333 26.5549 40.8333 23.3333C40.8333 20.1116 38.2217 17.4999 35 17.4999C31.7783 17.4999 29.1667 20.1116 29.1667 23.3333C29.1667 26.5549 31.7783 29.1666 35 29.1666Z" fill="#2E31C5"/>
</svg>
