<svg width="70" height="70" viewBox="0 0 70 70" fill="none" xmlns="http://www.w3.org/2000/svg">
<path d="M29.1666 64.1674H40.8333C51.8327 64.1674 57.3324 64.1674 60.7495 60.7503C64.1666 57.3333 64.1666 51.8335 64.1666 40.8341C64.1666 29.8347 64.1666 24.3349 60.7495 20.9178C59.6919 19.8603 58.4332 19.13 56.8738 18.6257C56.8751 19.1202 56.875 19.6258 56.875 20.1402L56.875 26.4347C56.875 26.5203 56.8758 26.6136 56.8766 26.7137C56.8853 27.7067 56.8997 29.3709 56.1865 30.8936C55.4734 32.4163 54.1856 33.4706 53.4173 34.0996C53.3405 34.1625 53.2671 34.2226 53.2018 34.277L48.8079 37.9386C46.2974 40.0309 44.112 41.8523 42.1473 43.1159C40.0296 44.4779 37.7389 45.4853 35 45.4853C32.261 45.4853 29.9703 44.4779 27.8526 43.1159C25.8879 41.8523 23.7025 40.0309 21.1921 37.9386L16.7981 34.277C16.7323 34.2222 16.6601 34.1631 16.5827 34.0996C15.8143 33.4706 14.5265 32.4163 13.8134 30.8936C13.1002 29.3709 13.1146 27.7067 13.1233 26.7137C13.1241 26.6136 13.125 26.5203 13.125 26.4347L13.1249 20.1402C13.1249 19.6252 13.1249 19.1197 13.1261 18.6247C11.5667 19.129 10.3087 19.8595 9.25034 20.9178C5.83325 24.3349 5.83325 29.8347 5.83325 40.8341C5.83325 51.8335 5.83325 57.3333 9.25034 60.7503C12.6674 64.1674 18.1672 64.1674 29.1666 64.1674Z" fill="#2E31C5"/>
<path fill-rule="evenodd" clip-rule="evenodd" d="M19.5991 30.9159L23.7969 34.4141C29.1538 38.8782 31.8322 41.1102 35.0002 41.1102C38.1681 41.1102 40.8465 38.8782 46.2034 34.4141L50.4012 30.9159C51.4334 30.0558 51.9494 29.6258 52.2248 29.0379C52.5002 28.4499 52.5002 27.7782 52.5002 26.4346V20.4168C52.5002 19.4817 52.5002 18.6101 52.4948 17.7967C52.4606 12.6311 52.2096 9.81433 50.3645 7.96918C48.2288 5.8335 44.7915 5.8335 37.9168 5.8335H32.0835C25.2089 5.8335 21.7715 5.8335 19.6358 7.96918C17.7907 9.81433 17.5343 12.6311 17.5002 17.7967C17.4948 18.6101 17.5002 19.4817 17.5002 20.4168V26.4346C17.5002 27.7782 17.5002 28.4499 17.7755 29.0379C18.0509 29.6258 18.567 30.0558 19.5991 30.9159ZM26.9791 17.5002C26.9791 16.292 27.9585 15.3127 29.1666 15.3127H40.8333C42.0414 15.3127 43.0208 16.292 43.0208 17.5002C43.0208 18.7083 42.0414 19.6877 40.8333 19.6877H29.1666C27.9585 19.6877 26.9791 18.7083 26.9791 17.5002ZM29.8958 26.2502C29.8958 25.042 30.8751 24.0627 32.0833 24.0627H37.9166C39.1247 24.0627 40.1041 25.042 40.1041 26.2502C40.1041 27.4583 39.1247 28.4377 37.9166 28.4377H32.0833C30.8751 28.4377 29.8958 27.4583 29.8958 26.2502Z" fill="#2E31C5"/>
</svg>
