<svg width="70" height="70" viewBox="0 0 70 70" fill="none" xmlns="http://www.w3.org/2000/svg">
<path d="M27.7083 5.8335C25.2921 5.8335 23.3333 7.79225 23.3333 10.2085V13.1252C23.3333 15.5414 25.2921 17.5002 27.7083 17.5002H42.2917C44.7079 17.5002 46.6667 15.5414 46.6667 13.1252V10.2085C46.6667 7.79225 44.7079 5.8335 42.2917 5.8335H27.7083Z" fill="#2E31C5"/>
<path fill-rule="evenodd" clip-rule="evenodd" d="M18.9583 11.7736C15.2894 11.9795 12.9733 12.5641 11.3128 14.2246C8.75 16.7874 8.75 20.9122 8.75 29.1618V46.6618C8.75 54.9113 8.75 59.0361 11.3128 61.5989C13.8756 64.1618 18.0004 64.1618 26.25 64.1618H43.75C51.9996 64.1618 56.1244 64.1618 58.6872 61.5989C61.25 59.0361 61.25 54.9113 61.25 46.6618V29.1618C61.25 20.9122 61.25 16.7874 58.6872 14.2246C57.0267 12.5641 54.7106 11.9795 51.0417 11.7736V13.1252C51.0417 17.9577 47.1242 21.8752 42.2917 21.8752H27.7083C22.8758 21.8752 18.9583 17.9577 18.9583 13.1252V11.7736ZM45.2426 36.5994C46.1258 35.775 46.1735 34.3908 45.3492 33.5076C44.5249 32.6244 43.1406 32.5767 42.2574 33.401L31.25 43.6746L27.7426 40.401C26.8594 39.5767 25.4751 39.6244 24.6508 40.5076C23.8265 41.3908 23.8742 42.775 24.7574 43.5994L29.7574 48.266C30.5979 49.0504 31.9021 49.0504 32.7426 48.266L45.2426 36.5994Z" fill="#2E31C5"/>
</svg>
