<svg width="70" height="70" viewBox="0 0 70 70" fill="none" xmlns="http://www.w3.org/2000/svg">
<path fill-rule="evenodd" clip-rule="evenodd" d="M47.0658 13.7916L52.4023 19.128C60.2451 26.9709 64.1666 30.8923 64.1666 35.7653C64.1666 40.6382 60.2451 44.5596 52.4023 52.4025C44.5594 60.2454 40.638 64.1668 35.765 64.1668C30.8921 64.1668 26.9706 60.2454 19.1278 52.4025L13.7913 47.0661C9.28352 42.5583 7.02962 40.3044 6.19095 37.3801C5.35228 34.4558 6.06902 31.3499 7.5025 25.1382L8.32916 21.556C9.53515 16.33 10.1382 13.717 11.9275 11.9277C13.7168 10.1384 16.3298 9.5354 21.5557 8.3294L25.1379 7.50274C31.3497 6.06926 34.4556 5.35252 37.3798 6.19119C40.3041 7.02986 42.558 9.28377 47.0658 13.7916ZM32.511 41.7914C30.5482 39.8286 30.5649 37.0123 31.7387 34.7804C31.1521 33.9283 31.2377 32.7528 31.9954 31.9951C32.7505 31.24 33.9201 31.1523 34.7715 31.7319C35.7627 31.2051 36.8519 30.9265 37.9372 30.9368C39.1453 30.9482 40.1154 31.9367 40.104 33.1448C40.0926 34.3529 39.104 35.323 37.896 35.3116C37.38 35.3067 36.7018 35.5383 36.1202 36.1198C34.9899 37.2502 35.2872 38.3804 35.6046 38.6978C35.9221 39.0153 37.0523 39.3126 38.1826 38.1822C40.4694 35.8955 44.4177 35.1365 46.9478 37.6666C48.9106 39.6295 48.894 42.4457 47.7202 44.6777C48.3068 45.5298 48.2212 46.7052 47.4634 47.463C46.7082 48.2182 45.5382 48.3058 44.6868 47.7258C43.3542 48.434 41.8382 48.6994 40.3929 48.4024C39.2095 48.1592 38.4473 47.0027 38.6905 45.8193C38.9337 44.6359 40.0902 43.8737 41.2736 44.1169C41.7903 44.2231 42.6233 44.0535 43.3386 43.3382C44.4689 42.2079 44.1716 41.0777 43.8542 40.7602C43.5368 40.4428 42.4065 40.1455 41.2762 41.2758C38.9894 43.5626 35.0412 44.3216 32.511 41.7914ZM29.2277 30.0218C31.5058 27.7437 31.5058 24.0502 29.2277 21.7722C26.9497 19.4941 23.2562 19.4941 20.9781 21.7722C18.7001 24.0502 18.7001 27.7437 20.9781 30.0218C23.2562 32.2998 26.9497 32.2998 29.2277 30.0218Z" fill="#2E31C5"/>
</svg>
