<svg width="70" height="70" viewBox="0 0 70 70" fill="none" xmlns="http://www.w3.org/2000/svg">
<path fill-rule="evenodd" clip-rule="evenodd" d="M59.5306 28.7599C59.3712 28.7498 59.1978 28.7499 59.018 28.7499L58.9731 28.7499H51.9211C46.1084 28.7499 41.1347 33.3614 41.1347 39.3749C41.1347 45.3885 46.1084 49.9999 51.9211 49.9999H58.9731L59.0179 49.9999C59.1978 50 59.3712 50.0001 59.5306 49.99C61.8916 49.8397 63.9797 47.9775 64.1553 45.3765C64.1668 45.206 64.1667 45.0221 64.1666 44.8517L64.1665 44.8055V33.9444L64.1666 33.8981C64.1667 33.7277 64.1668 33.5439 64.1553 33.3733C63.9797 30.7724 61.8916 28.9102 59.5306 28.7599ZM51.2958 42.2083C52.7923 42.2083 54.0054 40.9397 54.0054 39.3749C54.0054 37.8101 52.7923 36.5416 51.2958 36.5416C49.7993 36.5416 48.5862 37.8101 48.5862 39.3749C48.5862 40.9397 49.7993 42.2083 51.2958 42.2083Z" fill="#2E31C5"/>
<path fill-rule="evenodd" clip-rule="evenodd" d="M59.0162 54.25C59.4353 54.239 59.7525 54.6303 59.6388 55.037C59.0744 57.0556 58.1788 58.7761 56.7414 60.2247C54.6376 62.3451 51.9698 63.2861 48.6739 63.7327C45.4713 64.1667 41.3791 64.1666 36.2127 64.1666H30.2731C25.1067 64.1666 21.0145 64.1667 17.8119 63.7327C14.5159 63.2861 11.8482 62.3451 9.74438 60.2247C7.64055 58.1044 6.70688 55.4157 6.26375 52.0938C5.83317 48.866 5.83321 44.7418 5.83325 39.5348V39.2151C5.83321 34.0081 5.83317 29.8838 6.26375 26.656C6.70688 23.3342 7.64055 20.6455 9.74438 18.5251C11.8482 16.4047 14.5159 15.4637 17.8119 15.0171C21.0145 14.5832 25.1067 14.5832 30.273 14.5833L36.2127 14.5833C41.3791 14.5832 45.4713 14.5832 48.6739 15.0171C51.9698 15.4637 54.6376 16.4047 56.7414 18.5251C58.1787 19.9737 59.0744 21.6942 59.6388 23.7128C59.7525 24.1196 59.4353 24.5109 59.0161 24.4999L51.9208 24.4999C43.9463 24.4999 36.9175 30.8492 36.9175 39.3749C36.9175 47.9007 43.9463 54.2499 51.9208 54.2499L59.0162 54.25ZM16.3754 25.9166C15.211 25.9166 14.267 26.868 14.267 28.0416C14.267 29.2152 15.211 30.1666 16.3754 30.1666H27.6204C28.7849 30.1666 29.7288 29.2152 29.7288 28.0416C29.7288 26.868 28.7849 25.9166 27.6204 25.9166H16.3754Z" fill="#2E31C5"/>
<path d="M22.6819 11.7377L28.3951 7.52859C31.4633 5.26814 35.6199 5.26814 38.6881 7.52859L44.4313 11.7598C42.03 11.6665 39.3483 11.6665 36.4083 11.6666H30.0775C27.391 11.6665 24.9202 11.6665 22.6819 11.7377Z" fill="#2E31C5"/>
</svg>
