<svg width="70" height="70" viewBox="0 0 70 70" fill="none" xmlns="http://www.w3.org/2000/svg">
<path d="M51.2682 12.9249L45.4349 9.86375C40.3143 7.17659 37.754 5.83301 34.9999 5.83301C32.2458 5.83301 29.6855 7.17659 24.5649 9.86374L18.7316 12.9249C13.5582 15.6398 10.5171 17.2357 8.63236 19.3702L34.9999 32.554L61.3675 19.3702C59.4827 17.2357 56.4417 15.6398 51.2682 12.9249Z" fill="white"/>
<path d="M63.4326 23.229L37.1874 36.3516V63.8864C39.2813 63.3648 41.6638 62.1146 45.4349 60.1356L51.2682 57.0744C57.5439 53.7811 60.6818 52.1344 62.4242 49.1754C64.1666 46.2164 64.1666 42.5344 64.1666 35.1703V34.8291C64.1666 29.3088 64.1666 25.8576 63.4326 23.229Z" fill="white"/>
<path d="M32.8124 63.8864V36.3516L6.5672 23.229C5.83325 25.8576 5.83325 29.3088 5.83325 34.8291V35.1703C5.83325 42.5344 5.83325 46.2164 7.57566 49.1754C9.31807 52.1344 12.4559 53.7811 18.7316 57.0744L24.5649 60.1356C28.336 62.1146 30.7185 63.3648 32.8124 63.8864Z" fill="white"/>
</svg>
