<svg width="70" height="70" viewBox="0 0 70 70" fill="none" xmlns="http://www.w3.org/2000/svg">
<path fill-rule="evenodd" clip-rule="evenodd" d="M35.1516 3.64551H34.8483C32.2277 3.64543 30.0424 3.64536 28.3077 3.87859C26.4766 4.12477 24.8235 4.66631 23.495 5.99477C22.1666 7.32322 21.625 8.97639 21.3788 10.8075C21.2116 12.051 21.1643 15.0248 21.151 17.5745C15.2527 17.7672 11.7114 18.4557 9.25034 20.9168C5.83325 24.3338 5.83325 29.8336 5.83325 40.833C5.83325 51.8324 5.83325 57.3322 9.25034 60.7493C12.6674 64.1663 18.1671 64.1663 29.1665 64.1663H40.8333C51.8327 64.1663 57.3324 64.1663 60.7495 60.7493C64.1666 57.3322 64.1666 51.8324 64.1666 40.833C64.1666 29.8336 64.1666 24.3338 60.7495 20.9168C58.2884 18.4557 54.7471 17.7672 48.8489 17.5745C48.8355 15.0248 48.7882 12.051 48.621 10.8075C48.3748 8.97639 47.8333 7.32322 46.5048 5.99477C45.1764 4.66631 43.5232 4.12477 41.6922 3.87859C39.9574 3.64536 37.7721 3.64543 35.1516 3.64551ZM44.473 17.5051C44.4598 15.0358 44.4178 12.3782 44.285 11.3904C44.1041 10.0445 43.7913 9.46845 43.4113 9.08836C43.0312 8.70827 42.4551 8.39553 41.1092 8.21458C39.7003 8.02516 37.8116 8.02052 34.9999 8.02052C32.1882 8.02052 30.2995 8.02516 28.8907 8.21458C27.5447 8.39553 26.9687 8.70827 26.5886 9.08836C26.2085 9.46845 25.8958 10.0445 25.7148 11.3904C25.582 12.3782 25.54 15.0358 25.5268 17.5051C26.6685 17.4997 27.8799 17.4997 29.1666 17.4997H40.8333C42.1199 17.4997 43.3314 17.4997 44.473 17.5051ZM34.9999 26.9788C36.208 26.9788 37.1874 27.9582 37.1874 29.1663V29.1962C40.363 29.9962 43.0207 32.5001 43.0207 35.9719C43.0207 37.18 42.0414 38.1594 40.8333 38.1594C39.6251 38.1594 38.6458 37.18 38.6458 35.9719C38.6458 34.8518 37.4038 33.2983 34.9999 33.2983C32.596 33.2983 31.3541 34.8518 31.3541 35.9719C31.3541 37.092 32.596 38.6455 34.9999 38.6455C39.0393 38.6455 43.0207 41.4448 43.0207 45.6941C43.0207 49.1659 40.363 51.6698 37.1874 52.4698V52.4997C37.1874 53.7078 36.208 54.6872 34.9999 54.6872C33.7918 54.6872 32.8124 53.7078 32.8124 52.4997V52.4698C29.6368 51.6698 26.9791 49.1659 26.9791 45.6941C26.9791 44.486 27.9585 43.5066 29.1666 43.5066C30.3747 43.5066 31.3541 44.486 31.3541 45.6941C31.3541 46.8142 32.596 48.3677 34.9999 48.3677C37.4038 48.3677 38.6458 46.8142 38.6458 45.6941C38.6458 44.574 37.4038 43.0205 34.9999 43.0205C30.9605 43.0205 26.9791 40.2212 26.9791 35.9719C26.9791 32.5001 29.6368 29.9962 32.8124 29.1962V29.1663C32.8124 27.9582 33.7918 26.9788 34.9999 26.9788Z" fill="white"/>
</svg>
