<svg width="70" height="70" viewBox="0 0 70 70" fill="none" xmlns="http://www.w3.org/2000/svg">
<path d="M63.8431 20.917C64.1666 24.5964 64.1666 29.1828 64.1666 34.9997C64.1666 47.0562 64.1666 53.8266 61.2866 58.191L43.9281 40.8325L63.8431 20.917Z" fill="white"/>
<path d="M58.1934 61.2849L40.8345 43.9261L20.9173 63.8429C24.5967 64.1663 29.1831 64.1663 34.9999 64.1663C47.0584 64.1663 53.8291 64.1663 58.1934 61.2849Z" fill="white"/>
<path fill-rule="evenodd" clip-rule="evenodd" d="M34.9999 5.83301C48.7492 5.83301 55.6239 5.83301 59.8952 10.1044C61.3648 11.574 62.3288 13.3518 62.9611 15.6117L15.612 62.9609C13.352 62.3286 11.5742 61.3646 10.1046 59.895C5.83325 55.6236 5.83325 48.749 5.83325 34.9997C5.83325 21.2504 5.83325 14.3757 10.1046 10.1044C14.376 5.83301 21.2506 5.83301 34.9999 5.83301ZM16.0416 25.5418C16.0416 30.7477 19.2997 36.8225 24.3832 38.9949C25.5682 39.5013 26.9317 39.5013 28.1167 38.9949C33.2001 36.8225 36.4582 30.7477 36.4582 25.5418C36.4582 20.2949 31.8878 16.0413 26.2499 16.0413C20.612 16.0413 16.0416 20.2949 16.0416 25.5418Z" fill="white"/>
<path d="M30.6249 26.2497C30.6249 28.6659 28.6662 30.6247 26.2499 30.6247C23.8337 30.6247 21.8749 28.6659 21.8749 26.2497C21.8749 23.8334 23.8337 21.8747 26.2499 21.8747C28.6662 21.8747 30.6249 23.8334 30.6249 26.2497Z" fill="white"/>
</svg>
