<svg width="70" height="70" viewBox="0 0 70 70" fill="none" xmlns="http://www.w3.org/2000/svg">
<path d="M41.441 32.3548C43.5716 32.3548 45.2987 30.6348 45.2987 28.5129C45.2987 26.3911 43.5716 24.671 41.441 24.671C39.3105 24.671 37.5833 26.3911 37.5833 28.5129C37.5833 30.6348 39.3105 32.3548 41.441 32.3548Z" fill="white"/>
<path fill-rule="evenodd" clip-rule="evenodd" d="M10.1046 10.1044C5.83325 14.3757 5.83325 21.2504 5.83325 34.9997C5.83325 48.749 5.83325 55.6236 10.1046 59.895C14.376 64.1663 21.2506 64.1663 34.9999 64.1663C48.7492 64.1663 55.6239 64.1663 59.8952 59.895C64.1666 55.6236 64.1666 48.749 64.1666 34.9997C64.1666 21.2504 64.1666 14.3757 59.8952 10.1044C55.6239 5.83301 48.7492 5.83301 34.9999 5.83301C21.2506 5.83301 14.376 5.83301 10.1046 10.1044ZM41.4412 39.5267C47.5488 39.5267 52.4999 34.5958 52.4999 28.5132C52.4999 22.4306 47.5488 17.4997 41.4412 17.4997C35.3337 17.4997 30.3825 22.4306 30.3825 28.5132C30.3825 31.3306 31.6684 33.3796 31.6684 33.3796L18.2951 46.6983C17.695 47.2959 16.8549 48.8498 18.2951 50.2841L19.8382 51.8208C20.4383 52.3331 21.947 53.0503 23.1815 51.8208L24.9817 50.028C26.782 51.8208 28.8394 50.7963 29.6109 49.7718C30.8968 47.9789 29.3538 46.186 29.3538 46.186L29.8681 45.6738C32.337 48.1326 34.4973 46.6983 35.2689 45.6738C36.5548 43.8809 35.2689 42.088 35.2689 42.088C35.1174 41.7863 34.9214 41.5735 34.753 41.3907C34.3494 40.9525 34.1044 40.6864 35.0117 39.7829L36.5548 38.2461C37.7893 39.2706 40.3268 39.5267 41.4412 39.5267Z" fill="white"/>
</svg>
