<svg width="70" height="70" viewBox="0 0 70 70" fill="none" xmlns="http://www.w3.org/2000/svg">
<path d="M27.7083 5.83301C25.2921 5.83301 23.3333 7.79176 23.3333 10.208V13.1247C23.3333 15.5409 25.2921 17.4997 27.7083 17.4997H42.2917C44.7079 17.4997 46.6667 15.5409 46.6667 13.1247V10.208C46.6667 7.79176 44.7079 5.83301 42.2917 5.83301H27.7083Z" fill="white"/>
<path fill-rule="evenodd" clip-rule="evenodd" d="M18.9583 11.7731C15.2894 11.979 12.9733 12.5636 11.3128 14.2241C8.75 16.7869 8.75 20.9117 8.75 29.1613V46.6613C8.75 54.9109 8.75 59.0356 11.3128 61.5985C13.8756 64.1613 18.0004 64.1613 26.25 64.1613H43.75C51.9996 64.1613 56.1244 64.1613 58.6872 61.5985C61.25 59.0356 61.25 54.9108 61.25 46.6613V29.1613C61.25 20.9117 61.25 16.7869 58.6872 14.2241C57.0267 12.5636 54.7106 11.979 51.0417 11.7731V13.1247C51.0417 17.9572 47.1242 21.8747 42.2917 21.8747H27.7083C22.8758 21.8747 18.9583 17.9572 18.9583 13.1247V11.7731ZM45.2426 36.5989C46.1258 35.7745 46.1735 34.3903 45.3492 33.5071C44.5249 32.6239 43.1406 32.5762 42.2574 33.4005L31.25 43.6741L27.7426 40.4005C26.8594 39.5762 25.4751 39.6239 24.6508 40.5071C23.8265 41.3903 23.8742 42.7745 24.7574 43.5989L29.7574 48.2655C30.5979 49.05 31.9021 49.05 32.7426 48.2655L45.2426 36.5989Z" fill="white"/>
</svg>
