<svg width="60" height="60" viewBox="0 0 60 60" fill="none" xmlns="http://www.w3.org/2000/svg">
<path fill-rule="evenodd" clip-rule="evenodd" d="M34.7504 54.7092L33.1693 57.3804C31.7601 59.7613 28.2396 59.7613 26.8304 57.3804L25.2493 54.7092C24.0229 52.6372 23.4097 51.6012 22.4247 51.0284C21.4398 50.4555 20.1997 50.4341 17.7195 50.3914C14.0581 50.3283 11.7617 50.104 9.83578 49.3063C6.26246 47.8261 3.42346 44.9871 1.94334 41.4138C0.833252 38.7338 0.833252 35.3363 0.833252 28.5413V25.6247C0.833252 16.0772 0.833252 11.3034 2.98225 7.79657C4.18473 5.8343 5.83455 4.18448 7.79681 2.98201C11.3037 0.833008 16.0774 0.833008 25.6249 0.833008H34.3749C43.9224 0.833008 48.6962 0.833008 52.203 2.98201C54.1653 4.18448 55.8151 5.8343 57.0176 7.79657C59.1666 11.3034 59.1666 16.0772 59.1666 25.6247V28.5413C59.1666 35.3363 59.1666 38.7338 58.0565 41.4138C56.5764 44.9871 53.7374 47.8261 50.1641 49.3063C48.2382 50.104 45.9417 50.3283 42.2802 50.3914C39.8 50.4341 38.5599 50.4555 37.575 51.0284C36.59 51.6012 35.9768 52.6372 34.7504 54.7092ZM18.3333 29.2705C17.1251 29.2705 16.1458 30.2499 16.1458 31.458C16.1458 32.6661 17.1251 33.6455 18.3333 33.6455H34.3749C35.583 33.6455 36.5624 32.6661 36.5624 31.458C36.5624 30.2499 35.583 29.2705 34.3749 29.2705H18.3333ZM16.1458 21.2497C16.1458 20.0416 17.1251 19.0622 18.3333 19.0622H41.6666C42.8747 19.0622 43.8541 20.0416 43.8541 21.2497C43.8541 22.4578 42.8747 23.4372 41.6666 23.4372H18.3333C17.1251 23.4372 16.1458 22.4578 16.1458 21.2497Z" fill="white"/>
</svg>
