<svg width="40" height="40" viewBox="0 0 40 40" fill="none" xmlns="http://www.w3.org/2000/svg">
<rect width="40" height="40" rx="14" fill="white"/>
<g clip-path="url(#clip0_412_810)">
<path fill-rule="evenodd" clip-rule="evenodd" d="M25.8327 14.3225C26.0181 14.2445 26.2209 14.2176 26.4202 14.2446C26.6195 14.2716 26.8079 14.3515 26.9658 14.476C27.1237 14.6005 27.2453 14.7651 27.318 14.9525C27.3907 15.14 27.4119 15.3436 27.3792 15.542L25.6782 25.8597C25.5132 26.855 24.4212 27.4257 23.5085 26.93C22.745 26.5152 21.611 25.8762 20.591 25.2095C20.081 24.8757 18.5187 23.807 18.7107 23.0465C18.8757 22.3962 21.5007 19.9527 23.0007 18.5C23.5895 17.9292 23.321 17.6 22.6257 18.125C20.8985 19.4285 18.1272 21.4107 17.2107 21.9687C16.4022 22.4607 15.9807 22.5447 15.4767 22.4607C14.5572 22.3077 13.7045 22.0707 13.0085 21.782C12.068 21.392 12.1137 20.099 13.0077 19.7225L25.8327 14.3225Z" fill="#2E31C5"/>
</g>
<defs>
<clipPath id="clip0_412_810">
<rect width="18" height="18" fill="white" transform="translate(11 11)"/>
</clipPath>
</defs>
</svg>
