<svg width="42" height="42" viewBox="0 0 42 42" fill="none" xmlns="http://www.w3.org/2000/svg">
<path d="M21 29.75C21.4958 29.75 21.9118 29.582 22.2478 29.246C22.5826 28.9112 22.75 28.4958 22.75 28V20.9563C22.75 20.4604 22.5826 20.0521 22.2478 19.7312C21.9118 19.4104 21.4958 19.25 21 19.25C20.5042 19.25 20.0888 19.4174 19.754 19.7522C19.418 20.0882 19.25 20.5042 19.25 21V28.0437C19.25 28.5396 19.418 28.9479 19.754 29.2688C20.0888 29.5896 20.5042 29.75 21 29.75ZM21 15.75C21.4958 15.75 21.9118 15.582 22.2478 15.246C22.5826 14.9112 22.75 14.4958 22.75 14C22.75 13.5042 22.5826 13.0883 22.2478 12.7523C21.9118 12.4174 21.4958 12.25 21 12.25C20.5042 12.25 20.0888 12.4174 19.754 12.7523C19.418 13.0883 19.25 13.5042 19.25 14C19.25 14.4958 19.418 14.9112 19.754 15.246C20.0888 15.582 20.5042 15.75 21 15.75ZM21 38.5C18.5792 38.5 16.3042 38.0403 14.175 37.121C12.0458 36.2028 10.1938 34.9563 8.61875 33.3813C7.04375 31.8063 5.79717 29.9542 4.879 27.825C3.95967 25.6958 3.5 23.4208 3.5 21C3.5 18.5792 3.95967 16.3042 4.879 14.175C5.79717 12.0458 7.04375 10.1938 8.61875 8.61875C10.1938 7.04375 12.0458 5.79658 14.175 4.87725C16.3042 3.95908 18.5792 3.5 21 3.5C23.4208 3.5 25.6958 3.95908 27.825 4.87725C29.9542 5.79658 31.8063 7.04375 33.3813 8.61875C34.9563 10.1938 36.2028 12.0458 37.121 14.175C38.0403 16.3042 38.5 18.5792 38.5 21C38.5 23.4208 38.0403 25.6958 37.121 27.825C36.2028 29.9542 34.9563 31.8063 33.3813 33.3813C31.8063 34.9563 29.9542 36.2028 27.825 37.121C25.6958 38.0403 23.4208 38.5 21 38.5Z" fill="#F2994A"/>
</svg>
