<svg width="40" height="40" viewBox="0 0 40 40" fill="none" xmlns="http://www.w3.org/2000/svg">
<rect width="40" height="40" rx="14" fill="white"/>
<path d="M12.503 27.5L13.517 23.774C12.8489 22.6286 12.4978 21.326 12.5 20C12.5 15.8578 15.8578 12.5 20 12.5C24.1423 12.5 27.5 15.8578 27.5 20C27.5 24.1423 24.1423 27.5 20 27.5C18.6746 27.5021 17.3725 27.1514 16.2275 26.4838L12.503 27.5ZM17.2933 16.481C17.1964 16.487 17.1018 16.5125 17.015 16.556C16.9337 16.6021 16.8594 16.6597 16.7945 16.727C16.7045 16.8117 16.6535 16.8853 16.5988 16.9565C16.3216 17.3172 16.1725 17.7601 16.175 18.215C16.1765 18.5825 16.2725 18.9402 16.4225 19.2747C16.7293 19.9513 17.234 20.6675 17.9008 21.3312C18.0613 21.491 18.218 21.6515 18.3868 21.8007C19.2143 22.5293 20.2005 23.0548 21.2668 23.3353L21.6935 23.4005C21.8323 23.408 21.971 23.3975 22.1105 23.3907C22.3289 23.3795 22.5422 23.3203 22.7353 23.2175C22.8335 23.1669 22.9293 23.1119 23.0225 23.0525C23.0225 23.0525 23.0548 23.0315 23.1163 22.985C23.2175 22.91 23.2798 22.8568 23.3638 22.769C23.426 22.7045 23.48 22.6287 23.5213 22.5425C23.5798 22.4202 23.6383 22.187 23.6623 21.9928C23.6803 21.8442 23.675 21.7633 23.6728 21.713C23.6698 21.6328 23.603 21.5495 23.5303 21.5142L23.0938 21.3185C23.0938 21.3185 22.4413 21.0343 22.043 20.8527C22.001 20.8344 21.956 20.824 21.9103 20.822C21.8589 20.8167 21.8071 20.8225 21.7582 20.8389C21.7093 20.8554 21.6645 20.8821 21.6268 20.9172V20.9157C21.623 20.9157 21.5728 20.9585 21.0305 21.6155C20.9994 21.6573 20.9565 21.6889 20.9074 21.7063C20.8582 21.7237 20.805 21.726 20.7545 21.713C20.7056 21.6999 20.6578 21.6834 20.6113 21.6635C20.5183 21.6245 20.486 21.6095 20.4223 21.5817L20.4185 21.5802C19.9894 21.3929 19.5922 21.1399 19.241 20.8302C19.1465 20.7478 19.0588 20.6578 18.9688 20.5707C18.6737 20.2882 18.4165 19.9685 18.2038 19.6198L18.1595 19.5485C18.1277 19.5006 18.102 19.449 18.083 19.3947C18.0545 19.2845 18.1288 19.196 18.1288 19.196C18.1288 19.196 18.311 18.9965 18.3958 18.8885C18.4663 18.7987 18.5322 18.7054 18.593 18.6088C18.6815 18.4663 18.7093 18.32 18.6628 18.2067C18.4528 17.6938 18.2353 17.183 18.0118 16.676C17.9675 16.5755 17.8363 16.5035 17.717 16.4892C17.6765 16.4847 17.636 16.4802 17.5955 16.4773C17.4948 16.4722 17.3939 16.474 17.2933 16.481Z" fill="#219653"/>
</svg>
