<svg width="30" height="30" viewBox="0 0 30 30" fill="none" xmlns="http://www.w3.org/2000/svg">
<path d="M11.875 2.5C10.8395 2.5 10 3.33947 10 4.375V5.625C10 6.66053 10.8395 7.5 11.875 7.5H18.125C19.1605 7.5 20 6.66053 20 5.625V4.375C20 3.33947 19.1605 2.5 18.125 2.5H11.875Z" fill="#2E31C5"/>
<path fill-rule="evenodd" clip-rule="evenodd" d="M8.125 5.04577C6.55262 5.13399 5.55998 5.38455 4.84835 6.09618C3.75 7.19453 3.75 8.96229 3.75 12.4978V19.9978C3.75 23.5334 3.75 25.3011 4.84835 26.3995C5.9467 27.4978 7.71447 27.4978 11.25 27.4978H18.75C22.2855 27.4978 24.0533 27.4978 25.1517 26.3995C26.25 25.3011 26.25 23.5334 26.25 19.9978V12.4978C26.25 8.96229 26.25 7.19453 25.1517 6.09618C24.44 5.38455 23.4474 5.13399 21.875 5.04577V5.625C21.875 7.69607 20.1961 9.375 18.125 9.375H11.875C9.80393 9.375 8.125 7.69607 8.125 5.625V5.04577ZM19.3897 15.6854C19.7682 15.3321 19.7886 14.7388 19.4354 14.3603C19.0821 13.9818 18.4888 13.9614 18.1103 14.3146L13.3929 18.7176L11.8897 17.3146C11.5112 16.9614 10.9179 16.9818 10.5646 17.3603C10.2114 17.7388 10.2318 18.3321 10.6103 18.6854L12.7532 20.6854C13.1134 21.0215 13.6723 21.0215 14.0325 20.6854L19.3897 15.6854Z" fill="#2E31C5"/>
</svg>
