<svg width="30" height="30" viewBox="0 0 30 30" fill="none" xmlns="http://www.w3.org/2000/svg">
<path fill-rule="evenodd" clip-rule="evenodd" d="M15 2.5C10.286 2.5 7.92893 2.5 6.46447 3.96447C5.1356 5.29333 5.01256 7.35712 5.00116 11.25H3.75C3.05964 11.25 2.5 11.8096 2.5 12.5V13.75C2.5 14.1434 2.68524 14.5139 3 14.75L5 16.25C5.01139 20.1429 5.1356 22.2067 6.46447 23.5355C6.76719 23.8383 7.10806 24.0784 7.5 24.2689V26.2499C7.5 26.9402 8.05964 27.4999 8.75 27.4999H10.625C11.3154 27.4999 11.875 26.9402 11.875 26.2499V24.9769C12.7838 25 13.8178 25 15 25C16.1822 25 17.2162 25 18.125 24.9769V26.2499C18.125 26.9402 18.6846 27.4999 19.375 27.4999H21.25C21.9404 27.4999 22.5 26.9402 22.5 26.2499V24.2689C22.8919 24.0784 23.2328 23.8383 23.5355 23.5355C24.8644 22.2067 24.9886 20.1429 25 16.25L27 14.75C27.3148 14.5139 27.5 14.1434 27.5 13.75V12.5C27.5 11.8096 26.9404 11.25 26.25 11.25H24.9988C24.9874 7.35712 24.8644 5.29333 23.5355 3.96447C22.0711 2.5 19.714 2.5 15 2.5ZM6.875 11.875C6.875 13.6428 6.875 14.5267 7.42417 15.0758C7.97335 15.625 8.85723 15.625 10.625 15.625H15H19.375C21.1428 15.625 22.0267 15.625 22.5758 15.0758C23.125 14.5267 23.125 13.6428 23.125 11.875V8.75C23.125 6.98223 23.125 6.09835 22.5758 5.54917C22.0267 5 21.1428 5 19.375 5H15H10.625C8.85723 5 7.97335 5 7.42417 5.54917C6.875 6.09835 6.875 6.98223 6.875 8.75V11.875ZM7.8125 20C7.8125 19.4822 8.23223 19.0625 8.75 19.0625H10.625C11.1428 19.0625 11.5625 19.4822 11.5625 20C11.5625 20.5178 11.1428 20.9375 10.625 20.9375H8.75C8.23223 20.9375 7.8125 20.5178 7.8125 20ZM22.1875 20C22.1875 19.4822 21.7678 19.0625 21.25 19.0625H19.375C18.8572 19.0625 18.4375 19.4822 18.4375 20C18.4375 20.5178 18.8572 20.9375 19.375 20.9375H21.25C21.7678 20.9375 22.1875 20.5178 22.1875 20Z" fill="white"/>
</svg>
