<svg width="108" height="58" viewBox="0 0 108 58" fill="none" xmlns="http://www.w3.org/2000/svg">
<path d="M25.929 66.152C18.185 66.152 12.041 63.176 7.497 57.224C2.953 51.272 0.681004 43.208 0.681004 33.032C0.681004 22.856 2.921 14.824 7.401 8.936C11.945 2.984 18.121 0.00799561 25.929 0.00799561C33.673 0.00799561 39.785 2.984 44.265 8.936C48.809 14.824 51.081 22.856 51.081 33.032C51.081 43.208 48.809 51.272 44.265 57.224C39.721 63.176 33.609 66.152 25.929 66.152ZM25.929 56.36C30.537 56.36 34.121 54.312 36.681 50.216C39.305 46.12 40.617 40.392 40.617 33.032C40.617 28.168 40.009 24.008 38.793 20.552C37.641 17.032 35.945 14.376 33.705 12.584C31.529 10.728 28.937 9.8 25.929 9.8C22.857 9.8 20.201 10.728 17.961 12.584C15.721 14.376 14.025 17.032 12.873 20.552C11.721 24.008 11.145 28.168 11.145 33.032C11.145 40.392 12.425 46.12 14.985 50.216C17.609 54.312 21.257 56.36 25.929 56.36ZM84.7725 24.104C91.3005 24.104 96.6445 26.088 100.805 30.056C105.029 34.024 107.141 38.984 107.141 44.936C107.141 51.016 105.061 56.072 100.901 60.104C96.7405 64.136 91.5565 66.152 85.3485 66.152C79.2045 66.152 74.0845 64.232 69.9885 60.392C65.9565 56.552 63.8445 51.656 63.6525 45.704H74.0205C74.1485 48.84 75.2685 51.4 77.3805 53.384C79.4925 55.368 82.1485 56.36 85.3485 56.36C88.6125 56.36 91.3005 55.272 93.4125 53.096C95.5885 50.92 96.6765 48.2 96.6765 44.936C96.6765 43.848 96.5165 42.792 96.1965 41.768C95.9405 40.744 95.5565 39.816 95.0445 38.984C94.5325 38.088 93.8925 37.288 93.1245 36.584C92.4205 35.88 91.6205 35.272 90.7245 34.76C89.8285 34.248 88.8365 33.864 87.7485 33.608C86.7245 33.352 85.6045 33.224 84.3885 33.224H67.4925L66.2445 31.784L69.7005 1.16H102.725V10.568H78.0525L76.6125 24.104H84.7725Z" fill="white"/>
</svg>
