<svg width="110" height="54" viewBox="0 0 110 54" fill="none" xmlns="http://www.w3.org/2000/svg">
<path d="M25.6165 66.152C17.8725 66.152 11.7285 63.176 7.1845 57.224C2.6405 51.272 0.368504 43.208 0.368504 33.032C0.368504 22.856 2.6085 14.824 7.0885 8.936C11.6325 2.984 17.8085 0.00799561 25.6165 0.00799561C33.3605 0.00799561 39.4725 2.984 43.9525 8.936C48.4965 14.824 50.7685 22.856 50.7685 33.032C50.7685 43.208 48.4965 51.272 43.9525 57.224C39.4085 63.176 33.2965 66.152 25.6165 66.152ZM25.6165 56.36C30.2245 56.36 33.8085 54.312 36.3685 50.216C38.9925 46.12 40.3045 40.392 40.3045 33.032C40.3045 28.168 39.6965 24.008 38.4805 20.552C37.3285 17.032 35.6325 14.376 33.3925 12.584C31.2165 10.728 28.6245 9.8 25.6165 9.8C22.5445 9.8 19.8885 10.728 17.6485 12.584C15.4085 14.376 13.7125 17.032 12.5605 20.552C11.4085 24.008 10.8325 28.168 10.8325 33.032C10.8325 40.392 12.1125 46.12 14.6725 50.216C17.2965 54.312 20.9445 56.36 25.6165 56.36ZM109.228 42.92V52.04H103.084V65H93.1V52.04H61.324V49.928L83.116 1.16H93.676L75.052 42.92H93.292L95.02 25.16H103.084V42.92H109.228Z" fill="#F2F3FB"/>
</svg>
