<svg width="108" height="58" viewBox="0 0 108 58" fill="none" xmlns="http://www.w3.org/2000/svg">
<path d="M26.0853 66.152C18.3413 66.152 12.1973 63.176 7.65325 57.224C3.10925 51.272 0.837254 43.208 0.837254 33.032C0.837254 22.856 3.07725 14.824 7.55725 8.936C12.1013 2.984 18.2773 0.00799561 26.0853 0.00799561C33.8293 0.00799561 39.9413 2.984 44.4213 8.936C48.9653 14.824 51.2373 22.856 51.2373 33.032C51.2373 43.208 48.9653 51.272 44.4213 57.224C39.8773 63.176 33.7653 66.152 26.0853 66.152ZM26.0853 56.36C30.6933 56.36 34.2773 54.312 36.8373 50.216C39.4613 46.12 40.7733 40.392 40.7733 33.032C40.7733 28.168 40.1653 24.008 38.9493 20.552C37.7973 17.032 36.1013 14.376 33.8613 12.584C31.6853 10.728 29.0933 9.8 26.0853 9.8C23.0133 9.8 20.3573 10.728 18.1173 12.584C15.8773 14.376 14.1813 17.032 13.0293 20.552C11.8773 24.008 11.3013 28.168 11.3013 33.032C11.3013 40.392 12.5813 46.12 15.1413 50.216C17.7653 54.312 21.4133 56.36 26.0853 56.36ZM90.8808 25.064C95.8728 25.96 99.8728 28.232 102.881 31.88C105.953 35.528 107.489 39.88 107.489 44.936C107.489 51.08 105.377 56.168 101.153 60.2C96.9928 64.168 91.7768 66.152 85.5048 66.152C79.4248 66.152 74.3688 64.264 70.3368 60.488C66.3688 56.648 64.2568 51.72 64.0008 45.704H74.3688C74.5608 48.904 75.6808 51.496 77.7288 53.48C79.7768 55.4 82.3688 56.36 85.5048 56.36C88.8328 56.36 91.5848 55.272 93.7608 53.096C95.9368 50.856 97.0248 48.04 97.0248 44.648C97.0248 42.984 96.7048 41.448 96.0648 40.04C95.4248 38.568 94.5608 37.32 93.4728 36.296C92.3848 35.272 91.0728 34.504 89.5368 33.992C88.0008 33.416 86.3368 33.128 84.5448 33.128H76.4808V31.112L89.7288 10.568H65.9208V1.16H104.993V3.272L90.8808 25.064Z" fill="white"/>
</svg>
