<svg width="30" height="30" viewBox="0 0 30 30" fill="none" xmlns="http://www.w3.org/2000/svg">
<path fill-rule="evenodd" clip-rule="evenodd" d="M15.065 1.5625H14.935C13.8119 1.56247 12.8754 1.56244 12.1319 1.66239C11.3472 1.7679 10.6387 1.99999 10.0693 2.56932C9.49998 3.13866 9.2679 3.84716 9.16239 4.63191C9.09074 5.16486 9.07046 6.43934 9.06474 7.53207C6.53692 7.61464 5.0192 7.90973 3.96447 8.96447C2.5 10.4289 2.5 12.786 2.5 17.5C2.5 22.214 2.5 24.5711 3.96447 26.0355C5.42893 27.5 7.78595 27.5 12.5 27.5H17.5C22.214 27.5 24.5711 27.5 26.0355 26.0355C27.5 24.5711 27.5 22.214 27.5 17.5C27.5 12.786 27.5 10.4289 26.0355 8.96447C24.9808 7.90973 23.4631 7.61464 20.9353 7.53207C20.9295 6.43934 20.9093 5.16486 20.8376 4.63191C20.7321 3.84716 20.5 3.13866 19.9307 2.56932C19.3613 1.99999 18.6528 1.7679 17.8681 1.66239C17.1246 1.56244 16.1881 1.56247 15.065 1.5625ZM19.0599 7.50235C19.0542 6.44404 19.0362 5.30509 18.9793 4.88174C18.9018 4.30492 18.7678 4.05805 18.6049 3.89515C18.442 3.73225 18.1951 3.59823 17.6183 3.52067C17.0145 3.4395 16.205 3.4375 15 3.4375C13.795 3.4375 12.9855 3.4395 12.3817 3.52067C11.8049 3.59823 11.558 3.73225 11.3951 3.89515C11.2323 4.05805 11.0982 4.30492 11.0207 4.88174C10.9638 5.30509 10.9458 6.44404 10.9401 7.50235C11.4294 7.5 11.9486 7.5 12.5 7.5H17.5C18.0514 7.5 18.5706 7.5 19.0599 7.50235ZM15 11.5625C15.5178 11.5625 15.9375 11.9822 15.9375 12.5V12.5128C17.2985 12.8557 18.4375 13.9288 18.4375 15.4167C18.4375 15.9344 18.0178 16.3542 17.5 16.3542C16.9822 16.3542 16.5625 15.9344 16.5625 15.4167C16.5625 14.9366 16.0303 14.2708 15 14.2708C13.9697 14.2708 13.4375 14.9366 13.4375 15.4167C13.4375 15.8967 13.9697 16.5625 15 16.5625C16.7312 16.5625 18.4375 17.7622 18.4375 19.5833C18.4375 21.0712 17.2985 22.1443 15.9375 22.4872V22.5C15.9375 23.0178 15.5178 23.4375 15 23.4375C14.4822 23.4375 14.0625 23.0178 14.0625 22.5V22.4872C12.7015 22.1443 11.5625 21.0712 11.5625 19.5833C11.5625 19.0656 11.9822 18.6458 12.5 18.6458C13.0178 18.6458 13.4375 19.0656 13.4375 19.5833C13.4375 20.0634 13.9697 20.7292 15 20.7292C16.0302 20.7292 16.5625 20.0634 16.5625 19.5833C16.5625 19.1033 16.0302 18.4375 15 18.4375C13.2688 18.4375 11.5625 17.2378 11.5625 15.4167C11.5625 13.9288 12.7015 12.8557 14.0625 12.5128V12.5C14.0625 11.9822 14.4822 11.5625 15 11.5625Z" fill="#2E31C5"/>
</svg>
