<svg width="26" height="26" viewBox="0 0 26 26" fill="none" xmlns="http://www.w3.org/2000/svg">
<path d="M19.9721 3.5394L17.4721 2.22746C15.2776 1.07582 14.1803 0.5 13 0.5C11.8197 0.5 10.7224 1.07582 8.52786 2.22746L6.02787 3.5394C3.81068 4.70292 2.50738 5.38687 1.69962 6.30165L13 11.9518L24.3004 6.30165C23.4926 5.38687 22.1893 4.70292 19.9721 3.5394Z" fill="#2E31C5"/>
<path d="M25.1855 7.95543L13.9375 13.5794V25.38C14.8349 25.1565 15.856 24.6207 17.4721 23.7725L19.9721 22.4606C22.6617 21.0492 24.0065 20.3435 24.7533 19.0753C25.5 17.8072 25.5 16.2292 25.5 13.0731V12.9269C25.5 10.5611 25.5 9.08197 25.1855 7.95543Z" fill="#2E31C5"/>
<path d="M12.0625 25.38V13.5794L0.814549 7.95543C0.5 9.08197 0.5 10.5611 0.5 12.9269V13.0731C0.5 16.2292 0.5 17.8072 1.24675 19.0753C1.99349 20.3435 3.33828 21.0492 6.02787 22.4606L8.52786 23.7725C10.144 24.6207 11.1651 25.1565 12.0625 25.38Z" fill="#2E31C5"/>
</svg>
