<svg width="26" height="26" viewBox="0 0 26 26" fill="none" xmlns="http://www.w3.org/2000/svg">
<path d="M25.3614 6.96456C25.5 8.54144 25.5 10.507 25.5 13C25.5 18.1671 25.5 21.0687 24.2657 22.9391L16.8264 15.4998L25.3614 6.96456Z" fill="#2E31C5"/>
<path d="M22.9401 24.2651L15.5005 16.8256L6.96458 25.3614C8.54146 25.5 10.5071 25.5 13 25.5C18.1679 25.5 21.0697 25.5 22.9401 24.2651Z" fill="#2E31C5"/>
<path fill-rule="evenodd" clip-rule="evenodd" d="M13 0.5C18.8926 0.5 21.8388 0.5 23.6694 2.33058C24.2992 2.96042 24.7124 3.72233 24.9834 4.69087L4.69087 24.9834C3.72233 24.7124 2.96042 24.2992 2.33058 23.6694C0.5 21.8388 0.5 18.8926 0.5 13C0.5 7.10744 0.5 4.16117 2.33058 2.33058C4.16116 0.5 7.10744 0.5 13 0.5ZM4.875 8.94665C4.875 11.1777 6.27135 13.7812 8.44996 14.7122C8.95783 14.9293 9.54217 14.9293 10.05 14.7122C12.2286 13.7812 13.625 11.1777 13.625 8.94665C13.625 6.69794 11.6662 4.875 9.25 4.875C6.83375 4.875 4.875 6.69794 4.875 8.94665Z" fill="#2E31C5"/>
<path d="M11.125 9.25C11.125 10.2855 10.2855 11.125 9.25 11.125C8.21446 11.125 7.375 10.2855 7.375 9.25C7.375 8.21446 8.21446 7.375 9.25 7.375C10.2855 7.375 11.125 8.21446 11.125 9.25Z" fill="#2E31C5"/>
</svg>
