<svg width="84" height="54" viewBox="0 0 84 54" fill="none" xmlns="http://www.w3.org/2000/svg">
<path d="M26.2415 66.152C18.4975 66.152 12.3535 63.176 7.8095 57.224C3.2655 51.272 0.993504 43.208 0.993504 33.032C0.993504 22.856 3.2335 14.824 7.7135 8.936C12.2575 2.984 18.4335 0.00799561 26.2415 0.00799561C33.9855 0.00799561 40.0975 2.984 44.5775 8.936C49.1215 14.824 51.3935 22.856 51.3935 33.032C51.3935 43.208 49.1215 51.272 44.5775 57.224C40.0335 63.176 33.9215 66.152 26.2415 66.152ZM26.2415 56.36C30.8495 56.36 34.4335 54.312 36.9935 50.216C39.6175 46.12 40.9295 40.392 40.9295 33.032C40.9295 28.168 40.3215 24.008 39.1055 20.552C37.9535 17.032 36.2575 14.376 34.0175 12.584C31.8415 10.728 29.2495 9.8 26.2415 9.8C23.1695 9.8 20.5135 10.728 18.2735 12.584C16.0335 14.376 14.3375 17.032 13.1855 20.552C12.0335 24.008 11.4575 28.168 11.4575 33.032C11.4575 40.392 12.7375 46.12 15.2975 50.216C17.9215 54.312 21.5695 56.36 26.2415 56.36ZM61.8778 1.16H83.3818V65H73.1098V10.472H61.8778V1.16Z" fill="#F2F3FB"/>
</svg>
