<svg width="112" height="54" viewBox="0 0 112 54" fill="none" xmlns="http://www.w3.org/2000/svg">
<path d="M26.2103 66.152C18.4663 66.152 12.3223 63.176 7.77825 57.224C3.23425 51.272 0.962254 43.208 0.962254 33.032C0.962254 22.856 3.20225 14.824 7.68225 8.936C12.2263 2.984 18.4023 0.00799561 26.2103 0.00799561C33.9543 0.00799561 40.0663 2.984 44.5463 8.936C49.0903 14.824 51.3623 22.856 51.3623 33.032C51.3623 43.208 49.0903 51.272 44.5463 57.224C40.0023 63.176 33.8903 66.152 26.2103 66.152ZM26.2103 56.36C30.8183 56.36 34.4023 54.312 36.9623 50.216C39.5863 46.12 40.8983 40.392 40.8983 33.032C40.8983 28.168 40.2903 24.008 39.0743 20.552C37.9223 17.032 36.2263 14.376 33.9863 12.584C31.8103 10.728 29.2183 9.8 26.2103 9.8C23.1383 9.8 20.4823 10.728 18.2423 12.584C16.0023 14.376 14.3063 17.032 13.1543 20.552C12.0023 24.008 11.4263 28.168 11.4263 33.032C11.4263 40.392 12.7063 46.12 15.2663 50.216C17.8903 54.312 21.5383 56.36 26.2103 56.36ZM89.7578 23.048C95.7098 23.048 100.766 25 104.926 28.904C109.15 32.744 111.262 37.736 111.262 43.88C111.262 48.168 110.27 52.008 108.286 55.4C106.302 58.792 103.518 61.448 99.9338 63.368C96.4138 65.224 92.4138 66.152 87.9338 66.152C81.0218 66.152 75.3578 64.072 70.9418 59.912C66.5898 55.752 64.4138 50.408 64.4138 43.88C64.4138 37.992 66.7178 31.048 71.3258 23.048L84.0938 0.775997H95.4218C88.0618 13.832 83.6458 21.736 82.1738 24.488C84.6698 23.528 87.1978 23.048 89.7578 23.048ZM87.8378 56.36C91.6138 56.36 94.7178 55.208 97.1498 52.904C99.5818 50.536 100.798 47.528 100.798 43.88C100.798 40.168 99.5818 37.16 97.1498 34.856C94.7178 32.488 91.6138 31.304 87.8378 31.304C85.4058 31.304 83.1978 31.848 81.2138 32.936C79.2298 34.024 77.6618 35.528 76.5098 37.448C75.4218 39.304 74.8778 41.448 74.8778 43.88C74.8778 47.528 76.0938 50.536 78.5258 52.904C81.0218 55.208 84.1258 56.36 87.8378 56.36Z" fill="#F2F3FB"/>
</svg>
