<svg width="107" height="59" viewBox="0 0 107 59" fill="none" xmlns="http://www.w3.org/2000/svg">
<path d="M25.7415 67.152C17.9975 67.152 11.8535 64.176 7.3095 58.224C2.7655 52.272 0.493504 44.208 0.493504 34.032C0.493504 23.856 2.7335 15.824 7.2135 9.936C11.7575 3.984 17.9335 1.008 25.7415 1.008C33.4855 1.008 39.5975 3.984 44.0775 9.936C48.6215 15.824 50.8935 23.856 50.8935 34.032C50.8935 44.208 48.6215 52.272 44.0775 58.224C39.5335 64.176 33.4215 67.152 25.7415 67.152ZM25.7415 57.36C30.3495 57.36 33.9335 55.312 36.4935 51.216C39.1175 47.12 40.4295 41.392 40.4295 34.032C40.4295 29.168 39.8215 25.008 38.6055 21.552C37.4535 18.032 35.7575 15.376 33.5175 13.584C31.3415 11.728 28.7495 10.8 25.7415 10.8C22.6695 10.8 20.0135 11.728 17.7735 13.584C15.5335 15.376 13.8375 18.032 12.6855 21.552C11.5335 25.008 10.9575 29.168 10.9575 34.032C10.9575 41.392 12.2375 47.12 14.7975 51.216C17.4215 55.312 21.0695 57.36 25.7415 57.36ZM82.857 56.208H106.665V66H62.985V63.216C72.521 52.784 79.401 45.008 83.625 39.888C87.913 34.704 90.761 30.768 92.169 28.08C93.577 25.392 94.281 22.736 94.281 20.112C94.281 18.256 93.865 16.624 93.033 15.216C92.265 13.808 91.145 12.72 89.673 11.952C88.265 11.12 86.601 10.704 84.681 10.704C81.673 10.704 79.241 11.6 77.385 13.392C75.593 15.12 74.697 17.392 74.697 20.208V21.648H64.329V20.208C64.329 14.448 66.185 9.808 69.897 6.288C73.609 2.704 78.505 0.911997 84.585 0.911997C90.537 0.911997 95.369 2.704 99.081 6.288C102.857 9.872 104.745 14.48 104.745 20.112C104.745 23.056 104.201 25.904 103.113 28.656C102.089 31.408 99.977 34.96 96.777 39.312C93.641 43.6 89.001 49.232 82.857 56.208Z" fill="white"/>
</svg>
