<svg width="120" height="31" viewBox="0 0 120 31" fill="none" xmlns="http://www.w3.org/2000/svg">
<g clip-path="url(#clip0_412_669)">
<mask id="mask0_412_669" style="mask-type:luminance" maskUnits="userSpaceOnUse" x="0" y="0" width="120" height="31">
<path d="M120 0H0V30.8614H120V0Z" fill="white"/>
</mask>
<g mask="url(#mask0_412_669)">
<path d="M86.1131 18.1458C85.6279 18.1708 85.1509 18.0266 84.7682 17.7397C84.603 17.6016 84.4724 17.4292 84.3871 17.2356C84.3011 17.0421 84.2626 16.8323 84.2739 16.6223H85.5698C85.5637 16.6896 85.5743 16.7574 85.6007 16.82C85.6271 16.8825 85.6694 16.938 85.723 16.9816C85.8301 17.0615 85.9622 17.1035 86.0981 17.1002C86.2309 17.1054 86.3614 17.0702 86.4724 16.9995C86.5199 16.972 86.5592 16.9329 86.5864 16.8862C86.6128 16.8396 86.6264 16.787 86.6256 16.7337C86.6301 16.7015 86.6301 16.6689 86.6256 16.6367C86.6165 16.6071 86.5992 16.58 86.5773 16.5576L86.5094 16.4893C86.4792 16.4668 86.4452 16.4487 86.409 16.4354L86.2928 16.3923L86.1539 16.3492L86.012 16.3133L85.8505 16.2738L85.5547 16.2019L85.2701 16.1121C85.1675 16.0814 85.0686 16.0404 84.9743 15.9899C84.8905 15.9405 84.8105 15.8853 84.735 15.8246C84.652 15.7611 84.5811 15.6846 84.5252 15.5983C84.4701 15.5058 84.4286 15.4066 84.4015 15.3036C84.366 15.1796 84.3479 15.0514 84.3486 14.9228C84.3396 14.7334 84.3765 14.5445 84.4565 14.3712C84.5365 14.1978 84.6573 14.0447 84.8098 13.9238C85.1781 13.6669 85.6279 13.5399 86.083 13.5645C86.5411 13.5391 86.9924 13.676 87.3524 13.949C87.5048 14.0803 87.6248 14.2427 87.7033 14.4242C87.7811 14.6058 87.8165 14.8019 87.8052 14.9982H86.5471C86.5516 14.9412 86.5411 14.8841 86.5177 14.8316C86.4943 14.7791 86.4581 14.7328 86.412 14.6964C86.3139 14.626 86.1939 14.5893 86.0716 14.5921C85.9614 14.5898 85.8528 14.6159 85.7569 14.6676C85.7162 14.6906 85.683 14.7239 85.6603 14.7637C85.6377 14.8037 85.6271 14.8486 85.6294 14.894C85.6286 14.9303 85.6377 14.9662 85.6558 14.9982C85.6747 15.0346 85.7033 15.0656 85.7381 15.088L85.8543 15.1599C85.9064 15.1843 85.9599 15.2047 86.0158 15.2209L86.1916 15.2749L86.4052 15.3252L86.7048 15.4006C86.772 15.4221 86.8731 15.4509 87.0007 15.4976C87.1041 15.5309 87.2045 15.573 87.2996 15.6234C87.3713 15.6665 87.4573 15.724 87.5509 15.7923C87.6392 15.8562 87.7139 15.9355 87.772 16.0258C87.8264 16.1206 87.8701 16.2206 87.9026 16.3241C87.9381 16.4493 87.9562 16.5787 87.9554 16.7085C87.9682 16.9137 87.929 17.1187 87.8415 17.3064C87.7547 17.494 87.6211 17.6587 87.4535 17.7864C87.0633 18.0519 86.5894 18.1789 86.1131 18.1458Z" fill="#2E31C5"/>
<path d="M89.8506 16.9809H91.5729V18.0265H88.5767V13.6465H91.5019V14.6921H89.8318V15.3353H91.3299V16.3234H89.8318L89.8506 16.9809Z" fill="#2E31C5"/>
<path d="M94.7488 18.0375L93.9994 16.6972H93.5428V18.0375H92.2847V13.6575H94.2915C94.5949 13.6526 94.8945 13.7193 95.1647 13.8516C95.4152 13.9765 95.6243 14.167 95.7669 14.4013C95.9149 14.6467 95.9903 14.9262 95.9843 15.2097C95.9866 15.3783 95.9586 15.5459 95.902 15.7056C95.8462 15.8596 95.7624 16.0031 95.6552 16.1295C95.5443 16.2554 95.4115 16.3613 95.262 16.4421L96.1677 18.0375H94.7488ZM93.5541 14.7282V15.6768H94.1269C94.2741 15.6844 94.4183 15.6382 94.5315 15.5475C94.5835 15.5024 94.6235 15.4466 94.6492 15.3844C94.6756 15.3221 94.6862 15.255 94.6809 15.1882C94.6817 15.1029 94.6598 15.0187 94.6175 14.9438C94.5707 14.8708 94.5035 14.8123 94.4228 14.7749C94.3307 14.733 94.2288 14.7121 94.1269 14.7139L93.5541 14.7282Z" fill="#2E31C5"/>
<path d="M99.5345 13.6572H100.962L99.216 18.0372H98.0364L96.25 13.6572H97.6847L98.6168 16.3808L99.5345 13.6572Z" fill="#2E31C5"/>
<path d="M101.426 18.0372V13.6572H102.699V18.0372H101.426Z" fill="#2E31C5"/>
<path d="M105.77 18.1486C105.45 18.1576 105.131 18.1038 104.834 17.9908C104.537 17.8777 104.266 17.7077 104.039 17.4912C103.811 17.2793 103.632 17.0243 103.512 16.7422C103.392 16.4602 103.334 16.1572 103.343 15.8526C103.334 15.5466 103.392 15.2421 103.512 14.9584C103.632 14.6746 103.811 14.4176 104.039 14.2034C104.266 13.9869 104.537 13.8168 104.834 13.7037C105.131 13.5907 105.45 13.537 105.77 13.5459C106.33 13.5327 106.876 13.7167 107.305 14.0633C107.728 14.4065 108.004 14.8877 108.08 15.4143H106.807C106.758 15.2704 106.681 15.1372 106.578 15.0227C106.473 14.9133 106.346 14.8254 106.204 14.7639C105.996 14.6732 105.764 14.6476 105.54 14.6908C105.316 14.734 105.112 14.8438 104.957 15.0047C104.74 15.2371 104.626 15.5411 104.638 15.8526C104.636 16.0607 104.684 16.2663 104.781 16.4527C104.874 16.6245 105.015 16.7681 105.189 16.8677C105.361 16.9673 105.56 17.0189 105.762 17.0169C105.921 17.0185 106.079 16.9841 106.223 16.9162C106.369 16.8533 106.498 16.7572 106.597 16.636C106.696 16.5105 106.769 16.3677 106.811 16.2155H108.095C108.027 16.757 107.752 17.2551 107.324 17.6133C106.895 17.9745 106.34 18.1659 105.77 18.1486Z" fill="#2E31C5"/>
<path d="M109.949 16.9809H111.672V18.0265H108.698V13.6465H111.619V14.6921H109.949V15.3353H111.447V16.3234H109.949V16.9809Z" fill="#2E31C5"/>
<path d="M9.05502 17.3153H5.2765V30.8614H0V0H5.2765V12.6083H9.02136L18.1813 0H24.6786L13.6874 14.8863L25.6822 30.8614H19.125L9.05502 17.3153Z" fill="#2E31C5"/>
<path d="M57.2848 15.4178C57.2848 24.3682 50.4242 30.8682 40.9722 30.8682H29.6328V0.00683594H40.9722C50.4392 0.00683594 57.2848 6.47448 57.2848 15.425M51.8885 15.425C51.8885 9.20168 47.3235 4.73181 40.8224 4.73181H34.9093V26.1469H40.8224C47.3235 26.1469 51.8885 21.6374 51.8885 15.425Z" fill="#2E31C5"/>
<path d="M68.7257 4.75371V13.4886H80.8063V18.1309H68.7257V30.8614H63.4492V0H82.001V4.75371H68.7257Z" fill="#2E31C5"/>
<path d="M120 0H85.9146V4.72136H120V0Z" fill="#2E31C5"/>
<path d="M120 26.1367H72.6538V30.8581H120V26.1367Z" fill="#2E31C5"/>
<path d="M120 0H115.079V30.8614H120V0Z" fill="#2E31C5"/>
</g>
</g>
<defs>
<clipPath id="clip0_412_669">
<rect width="120" height="31" fill="white"/>
</clipPath>
</defs>
</svg>
