<svg width="120" height="31" viewBox="0 0 120 31" fill="none" xmlns="http://www.w3.org/2000/svg">
<g clip-path="url(#clip0_412_140)">
<mask id="mask0_412_140" style="mask-type:luminance" maskUnits="userSpaceOnUse" x="0" y="0" width="120" height="31">
<path d="M120 0H0V30.8614H120V0Z" fill="white"/>
</mask>
<g mask="url(#mask0_412_140)">
<path d="M86.1131 18.1453C85.6279 18.1703 85.1509 18.0262 84.7682 17.7393C84.603 17.6012 84.4724 17.4288 84.3871 17.2352C84.3011 17.0417 84.2626 16.8319 84.2739 16.6219H85.5698C85.5637 16.6892 85.5743 16.757 85.6007 16.8195C85.6271 16.8821 85.6694 16.9375 85.723 16.9812C85.8301 17.0611 85.9622 17.1031 86.0981 17.0998C86.2309 17.1049 86.3614 17.0698 86.4724 16.9991C86.5199 16.9716 86.5592 16.9324 86.5864 16.8858C86.6128 16.8391 86.6264 16.7866 86.6256 16.7332C86.6301 16.7011 86.6301 16.6684 86.6256 16.6363C86.6165 16.6066 86.5992 16.5795 86.5773 16.5572L86.5094 16.4889C86.4792 16.4664 86.4452 16.4483 86.409 16.435L86.2928 16.3919L86.1539 16.3488L86.012 16.3129L85.8505 16.2734L85.5547 16.2015L85.2701 16.1117C85.1675 16.0809 85.0686 16.04 84.9743 15.9895C84.8905 15.9401 84.8105 15.8848 84.735 15.8242C84.652 15.7607 84.5811 15.6841 84.5252 15.5978C84.4701 15.5053 84.4286 15.4062 84.4015 15.3031C84.366 15.1791 84.3479 15.0509 84.3486 14.9223C84.3396 14.7329 84.3765 14.5441 84.4565 14.3707C84.5365 14.1974 84.6573 14.0442 84.8098 13.9234C85.1781 13.6665 85.6279 13.5395 86.083 13.5641C86.5411 13.5387 86.9924 13.6756 87.3524 13.9486C87.5048 14.0799 87.6248 14.2423 87.7033 14.4238C87.7811 14.6054 87.8165 14.8015 87.8052 14.9977H86.5471C86.5516 14.9408 86.5411 14.8837 86.5177 14.8312C86.4943 14.7787 86.4581 14.7324 86.412 14.696C86.3139 14.6255 86.1939 14.5888 86.0716 14.5917C85.9614 14.5894 85.8528 14.6155 85.7569 14.6672C85.7162 14.6902 85.683 14.7234 85.6603 14.7633C85.6377 14.8032 85.6271 14.8482 85.6294 14.8936C85.6286 14.9298 85.6377 14.9657 85.6558 14.9977C85.6747 15.0341 85.7033 15.0651 85.7381 15.0876L85.8543 15.1594C85.9064 15.1839 85.9599 15.2043 86.0158 15.2205L86.1916 15.2744L86.4052 15.3248L86.7048 15.4002C86.772 15.4217 86.8731 15.4505 87.0007 15.4972C87.1041 15.5305 87.2045 15.5726 87.2996 15.6229C87.3713 15.666 87.4573 15.7236 87.5509 15.7918C87.6392 15.8558 87.7139 15.935 87.772 16.0254C87.8264 16.1202 87.8701 16.2202 87.9026 16.3237C87.9381 16.4489 87.9562 16.5782 87.9554 16.7081C87.9682 16.9133 87.929 17.1183 87.8415 17.3059C87.7547 17.4935 87.6211 17.6583 87.4535 17.786C87.0633 18.0515 86.5894 18.1785 86.1131 18.1453Z" fill="#2E31C5"/>
<path d="M89.8506 16.9811H91.5729V18.0266H88.5767V13.6466H91.5019V14.6923H89.8318V15.3354H91.3299V16.3235H89.8318L89.8506 16.9811Z" fill="#2E31C5"/>
<path d="M94.7487 18.0375L93.9993 16.6972H93.5427V18.0375H92.2845V13.6574H94.2913C94.5947 13.6525 94.8944 13.7192 95.1645 13.8515C95.4151 13.9765 95.6242 14.167 95.7668 14.4012C95.9147 14.6467 95.9902 14.9262 95.9842 15.2097C95.9864 15.3782 95.9585 15.5459 95.9019 15.7055C95.8461 15.8596 95.7623 16.0031 95.6551 16.1295C95.5442 16.2554 95.4113 16.3612 95.2619 16.4421L96.1676 18.0375H94.7487ZM93.554 14.7282V15.6768H94.1268C94.274 15.6844 94.4181 15.6382 94.5313 15.5474C94.5834 15.5024 94.6234 15.4466 94.6491 15.3844C94.6755 15.3221 94.6861 15.255 94.6808 15.1881C94.6815 15.1028 94.6596 15.0187 94.6174 14.9437C94.5706 14.8708 94.5034 14.8122 94.4227 14.7749C94.3306 14.7329 94.2287 14.712 94.1268 14.7138L93.554 14.7282Z" fill="#2E31C5"/>
<path d="M99.5343 13.6575H100.961L99.2158 18.0375H98.0362L96.2498 13.6575H97.6845L98.6166 16.3811L99.5343 13.6575Z" fill="#2E31C5"/>
<path d="M101.426 18.0375V13.6575H102.699V18.0375H101.426Z" fill="#2E31C5"/>
<path d="M105.77 18.149C105.45 18.1579 105.131 18.1041 104.834 17.9911C104.537 17.8781 104.266 17.7081 104.039 17.4915C103.811 17.2797 103.632 17.0246 103.512 16.7425C103.392 16.4605 103.334 16.1576 103.343 15.853C103.334 15.5469 103.392 15.2425 103.512 14.9587C103.632 14.675 103.811 14.4179 104.039 14.2038C104.266 13.9872 104.537 13.8171 104.834 13.7041C105.131 13.591 105.45 13.5373 105.77 13.5462C106.33 13.533 106.876 13.7171 107.305 14.0636C107.728 14.4068 108.004 14.888 108.08 15.4146H106.807C106.758 15.2707 106.681 15.1376 106.578 15.023C106.473 14.9137 106.346 14.8257 106.204 14.7643C105.996 14.6735 105.764 14.6479 105.54 14.6912C105.316 14.7344 105.112 14.8442 104.957 15.005C104.74 15.2374 104.626 15.5414 104.638 15.853C104.636 16.061 104.684 16.2666 104.781 16.4531C104.874 16.6249 105.015 16.7685 105.189 16.868C105.361 16.9676 105.56 17.0192 105.762 17.0172C105.921 17.0189 106.079 16.9844 106.223 16.9165C106.369 16.8537 106.498 16.7575 106.597 16.6363C106.696 16.5109 106.769 16.3681 106.811 16.2159H108.095C108.027 16.7574 107.752 17.2555 107.324 17.6136C106.895 17.9749 106.34 18.1663 105.77 18.149Z" fill="#2E31C5"/>
<path d="M109.949 16.9811H111.672V18.0266H108.698V13.6466H111.619V14.6923H109.949V15.3354H111.447V16.3235H109.949V16.9811Z" fill="#2E31C5"/>
<path d="M9.05502 17.3153H5.2765V30.8614H0V0H5.2765V12.6083H9.02136L18.1813 0H24.6786L13.6874 14.8863L25.6822 30.8614H19.125L9.05502 17.3153Z" fill="#2E31C5"/>
<path d="M57.2849 15.418C57.2849 24.3685 50.4243 30.8684 40.9723 30.8684H29.6329V0.00704956H40.9723C50.4393 0.00704956 57.2849 6.47469 57.2849 15.4252M51.8886 15.4252C51.8886 9.20189 47.3237 4.73202 40.8225 4.73202H34.9095V26.1471H40.8225C47.3237 26.1471 51.8886 21.6376 51.8886 15.4252Z" fill="#2E31C5"/>
<path d="M68.7255 4.75371V13.4886H80.806V18.1309H68.7255V30.8614H63.449V0H82.0007V4.75371H68.7255Z" fill="#2E31C5"/>
<path d="M120 0H85.9147V4.72136H120V0Z" fill="#2E31C5"/>
<path d="M120 26.1365H72.6539V30.8579H120V26.1365Z" fill="#2E31C5"/>
<path d="M120 0H115.079V30.8614H120V0Z" fill="#2E31C5"/>
</g>
</g>
<defs>
<clipPath id="clip0_412_140">
<rect width="120" height="31" fill="white"/>
</clipPath>
</defs>
</svg>
