<svg width="246" height="39" viewBox="0 0 246 39" fill="none" xmlns="http://www.w3.org/2000/svg">
<g clip-path="url(#clip0_1654_1346)">
<path d="M62.241 3.45546V4.8797H74.4669C75.2819 4.8797 76.5045 4.8797 77.3072 5.69426C78.1099 6.50881 78.1223 7.73065 78.1223 8.53286V20.7512C78.1223 21.5658 78.1223 22.7876 77.3072 23.5898C76.4922 24.4044 75.2696 24.4044 74.4669 24.4044H68.5638C67.5463 24.4044 66.2199 24.4044 65.7235 23.2838C65.2147 22.1631 65.927 21.1462 66.5385 20.3217L74.4916 9.73249H62.2657L57.3753 16.2489C56.5553 17.34 55.8464 18.2853 55.8464 19.5072C55.8464 20.729 56.5059 21.6077 57.3753 22.7654L58.5979 24.3945C59.8205 26.0236 61.0431 27.6527 62.6732 28.4673C64.3033 29.2819 66.2298 29.2819 68.8973 29.2819H74.1828C77.2455 29.2819 81.8147 29.2819 84.8774 26.2211C87.9401 23.1603 87.94 18.6926 87.94 17.0635V12.1762C87.94 10.547 87.9401 6.07932 84.8774 3.01856C81.8147 -0.0421985 77.2455 -0.0421985 74.1828 -0.0421985L65.7358 -0.0449137C64.9208 -0.0451605 63.9032 -0.0449137 63.0931 0.769643C62.278 1.5842 62.278 2.60116 62.278 3.41078" fill="#C4151C"/>
<path d="M47.6687 9.77441H59.7711L45.1988 29.3731H33.0964L47.6687 9.77441Z" fill="#C4151C"/>
<path d="M0 13.2301C0 12.4156 0 11.3986 0.81506 10.589C1.63012 9.77935 2.64771 9.77441 3.45783 9.77441H23.9331C26.5759 9.77441 28.5271 9.77441 30.1572 10.589C31.7873 11.4035 32.9976 13.0326 34.2325 14.6618L35.4551 16.2909C36.322 17.4461 36.984 18.3273 36.984 19.5491C36.984 20.7709 36.2751 21.7163 35.4551 22.8073L30.5648 29.3238H18.3389L26.2919 18.7345C26.9019 17.92 27.6157 16.903 27.1069 15.7725C26.5981 14.6519 25.2743 14.6519 24.2666 14.6519H14.6834V39.0886H4.90271V14.6519H0.0123494V13.2252" fill="#C4151C"/>
<path d="M99.536 25.9178C98.8025 26.915 98.0541 27.8974 97.3206 28.8798V29.4377H99.3878C100.4 28.09 100.929 27.3865 100.929 26.5744H102.954V29.4377H104.891V26.5744H106.916C106.916 27.3816 107.445 28.085 108.457 29.4377H110.525V28.8798L108.294 25.9178C110.171 24.5109 110.171 24.5109 110.171 22.6596V22.045H108.06V22.6596C108.06 24.9033 108.06 24.9033 105.859 24.9033H104.891V22.04H102.954V24.9033H101.986C99.7855 24.9033 99.7855 24.9033 99.7855 22.6596V22.045H97.6737V22.6596C97.6737 24.5059 97.6737 24.5059 99.536 25.9178Z" fill="#333333"/>
<path fill-rule="evenodd" clip-rule="evenodd" d="M114.355 24.9308C114.355 23.3042 114.355 23.3042 116.158 23.3042C117.961 23.3042 117.961 23.3042 117.961 24.9308H114.355ZM114.355 26.2489H116.158C118.05 26.2341 118.609 26.2637 119.246 26.1169L119.994 25.9411V25.2228C119.994 24.0059 119.994 21.7178 116.512 21.7178H115.808C112.325 21.7178 112.325 24.0035 112.325 25.2475V25.951C112.325 27.2691 112.354 29.4807 116.178 29.4807C116.751 29.4807 118.04 29.4807 119.438 29.1302V27.548H119.043L117.635 27.8985H116.139C114.336 27.898 114.336 27.898 114.336 26.2719L114.355 26.2489Z" fill="#333333"/>
<path d="M123.247 21.9189C123.247 23.0322 123.159 26.3867 121.399 28.7316V29.3043H123.556C124.833 27.6036 124.833 25.3796 124.833 23.553H127.87V29.3043H129.807V21.9239H123.262" fill="#333333"/>
<path fill-rule="evenodd" clip-rule="evenodd" d="M134.114 24.9308C134.114 23.3042 134.114 23.3042 135.92 23.3042C137.723 23.3042 137.723 23.3042 137.723 24.9308H134.117M134.117 26.2489H135.922C137.814 26.2341 138.372 26.2637 139.01 26.1169L139.758 25.9411V25.2228C139.758 24.0059 139.758 21.7178 136.276 21.7178H135.572C132.089 21.7178 132.089 24.0035 132.089 25.2475V25.951C132.089 27.2691 132.118 29.4807 135.942 29.4807C136.515 29.4807 137.804 29.4807 139.202 29.1302V27.548H138.807L137.399 27.8985H135.903C134.1 27.898 134.1 27.898 134.1 26.2719L134.117 26.2489Z" fill="#333333"/>
<path d="M146.958 25.6712V25.4513C148.454 25.0712 148.454 24.148 148.454 23.795C148.454 23.0915 148.454 21.6846 144.898 21.6846C144.369 21.6846 143.137 21.6846 141.736 22.0375V23.6198H142.132L143.539 23.2668H145.167C146.296 23.2668 146.355 23.2668 146.355 24.0863C146.355 24.8934 146.355 24.8934 145.167 24.8934H143.539V26.2115H145.167C146.296 26.2115 146.355 26.2115 146.355 27.0187C146.355 27.8406 146.355 27.8406 145.167 27.8406H143.539L142.132 27.4877H141.736V29.0699C143.144 29.4204 144.379 29.4204 144.898 29.4204C148.454 29.4204 148.454 28.0134 148.454 27.31C148.454 26.9594 148.454 26.0363 146.958 25.6685" fill="#333333"/>
<path d="M156.59 21.9189V24.6835H152.639V21.9189H150.663V29.3734H152.639V26.4113H156.59V29.3734H158.319V21.9189H156.59Z" fill="#333333"/>
<path fill-rule="evenodd" clip-rule="evenodd" d="M164.494 25.6711C166.035 25.6711 166.035 25.6711 166.035 26.8139C166.035 27.9568 166.035 27.9568 164.494 27.9568H162.953V25.6711H164.494ZM171.41 21.9686H169.473V29.3489H171.41V21.9686ZM164.766 29.3489C167.097 29.3489 168.075 28.8355 168.075 26.8312C168.075 25.7328 168.075 24.1407 165.037 24.1407C164.598 24.1407 163.849 24.1851 162.97 24.4048V21.9414H161.034V29.3218H164.763L164.766 29.3489Z" fill="#333333"/>
<path fill-rule="evenodd" clip-rule="evenodd" d="M175.855 24.9308C175.855 23.3042 175.855 23.3042 177.658 23.3042C179.461 23.3042 179.461 23.3042 179.461 24.9308H175.855ZM175.855 26.2489H177.658C179.55 26.2341 180.109 26.2637 180.746 26.1169L181.494 25.9411V25.2228C181.494 24.0059 181.494 21.7178 178.012 21.7178H177.308C173.825 21.7178 173.825 24.0035 173.825 25.2475V25.951C173.825 27.2691 173.855 29.4807 177.678 29.4807C178.251 29.4807 179.54 29.4807 180.938 29.1302V27.548H180.543L179.135 27.8985H177.639C175.836 27.898 175.836 27.898 175.836 26.2719L175.855 26.2489Z" fill="#333333"/>
<path fill-rule="evenodd" clip-rule="evenodd" d="M189.44 25.4245C189.44 23.4449 189.44 23.4894 192.058 23.4894C192.411 23.4894 192.895 23.533 193.48 23.6651V26.8246L191.603 27.2936C189.432 27.2938 189.432 27.2938 189.432 25.4176M188.289 30.5271V32.1982C189.697 32.5512 190.833 32.5512 191.277 32.5512C195.279 32.5512 195.402 30.8209 195.402 28.8486V21.9866H194.77L193.831 22.6901C193.187 21.8533 191.616 21.8262 191.114 21.8262C187.385 21.8262 187.385 24.1711 187.385 25.2325V25.5855C187.385 26.8172 187.385 28.8437 190.546 28.8437C191.5 28.8437 192.628 28.5796 193.461 27.965V28.5796C193.461 30.8505 193.417 30.8653 191.085 30.8653H190.072L188.664 30.5123H188.269L188.289 30.5271Z" fill="#333333"/>
<path fill-rule="evenodd" clip-rule="evenodd" d="M201.295 21.7471C197.566 21.7471 197.566 23.9464 197.566 25.2768V25.9803C197.566 27.2984 197.566 29.51 201.295 29.51H201.999C205.729 29.51 205.729 27.3107 205.729 25.9803V25.2768C205.729 23.9587 205.729 21.7471 201.999 21.7471H201.295ZM201.646 23.3737C203.713 23.3737 203.713 23.3737 203.713 25.6175C203.713 27.8612 203.713 27.8612 201.646 27.8612C199.579 27.8612 199.579 27.8612 199.579 25.6175C199.579 23.3737 199.579 23.3737 201.646 23.3737Z" fill="#333333"/>
<path fill-rule="evenodd" clip-rule="evenodd" d="M213.892 25.6715C213.892 27.8708 213.892 27.8708 211.735 27.8708C211.207 27.8708 210.533 27.8708 209.844 27.6948V23.9922L211.721 23.5233C213.892 23.5233 213.892 23.5524 213.892 25.6633M207.915 21.9608V32.3279H209.851V29.119C210.73 29.3389 211.434 29.514 212.494 29.514C215.927 29.514 215.927 26.9962 215.927 25.9842V25.2807C215.927 24.049 215.927 21.751 212.716 21.751C211.074 21.751 210.123 22.4693 209.604 22.8642L208.9 21.9262H207.932L207.915 21.9608Z" fill="#333333"/>
<path fill-rule="evenodd" clip-rule="evenodd" d="M221.795 21.7471C218.066 21.7471 218.066 23.9464 218.066 25.2768V25.9803C218.066 27.2984 218.066 29.51 221.795 29.51H222.499C226.229 29.51 226.229 27.3107 226.229 25.9803V25.2768C226.229 23.9587 226.229 21.7471 222.499 21.7471H221.795ZM222.146 23.3737C224.213 23.3737 224.213 23.3737 224.213 25.6175C224.213 27.8612 224.213 27.8612 222.146 27.8612C220.079 27.8612 220.079 27.8612 220.079 25.6175C220.079 23.3737 220.079 23.3737 222.146 23.3737Z" fill="#333333"/>
<path d="M231.922 21.7461C231.218 21.7461 230.294 21.7461 228.884 22.0991V23.6813H229.279L230.687 23.3308H232.49C233.458 23.3308 233.458 23.3308 233.458 23.8886C233.458 24.2688 233.458 24.3872 232.71 24.5181L230.949 24.9574C229.936 25.2067 228.528 25.5869 228.528 27.1123C228.528 28.1243 228.528 29.4869 232.085 29.4869C232.789 29.4869 233.712 29.4869 235.123 29.1363V27.5541H234.727C234.14 27.7153 233.584 27.8479 233.364 27.9071H231.517C230.548 27.9071 230.548 27.9071 230.548 27.3493C230.548 27.0136 230.548 26.9395 230.958 26.821L231.941 26.5569L233.055 26.278C234.068 26.0287 235.476 25.6634 235.476 24.1231C235.476 23.1111 235.476 21.7486 231.919 21.7486" fill="#333333"/>
<path d="M244.518 29.6206L245.955 28.5493C245.427 27.8458 245.427 27.8458 245.427 26.5993V22.0329H243.491V27.3892L241.613 27.8582C239.618 27.8582 239.618 27.8582 239.618 25.8218V22.0205H237.681V26.118C237.681 27.5694 237.681 29.5984 240.621 29.5984C242.162 29.5984 243.115 28.8801 243.634 28.4851L244.498 29.628" fill="#333333"/>
<path fill-rule="evenodd" clip-rule="evenodd" d="M97.8071 4.2698V14.6369H99.9189V11.7736H101.591C104.456 11.7736 106.704 11.7736 106.704 8.0217C106.704 4.24512 104.459 4.24512 101.591 4.24512H97.8121M99.9238 9.92233V6.09638H102.468C104.36 6.09638 104.449 6.09638 104.449 8.01676C104.449 9.8779 104.449 9.92233 102.468 9.92233H99.9238Z" fill="#333333"/>
<path fill-rule="evenodd" clip-rule="evenodd" d="M112.132 7.08398C108.403 7.08398 108.403 9.28329 108.403 10.6137V11.3172C108.403 12.6353 108.403 14.847 112.132 14.847H112.836C116.566 14.847 116.566 12.6477 116.566 11.3172V10.6137C116.566 9.29563 116.566 7.08398 112.836 7.08398H112.132ZM112.483 8.71063C114.55 8.71063 114.55 8.71063 114.55 10.9544C114.55 13.1981 114.55 13.1981 112.483 13.1981C110.416 13.1981 110.416 13.1981 110.416 10.9544C110.416 8.71063 110.416 8.71063 112.483 8.71063Z" fill="#333333"/>
<path d="M122.259 14.8345C122.788 14.8345 124.151 14.8345 125.569 14.4815V12.8993H125.173L123.751 13.2498H122.916C120.466 13.2498 120.466 13.2498 120.466 10.9641C120.466 8.67838 120.466 8.67838 122.269 8.67838C123.795 8.67838 123.795 8.67838 124.161 10.1298L125.922 9.6904C125.922 8.98692 125.922 7.09863 122.612 7.09863H121.908C118.426 7.09863 118.426 9.29794 118.426 10.6284V11.3319C118.426 12.65 118.426 14.8616 122.254 14.8616" fill="#333333"/>
<path d="M131.645 14.8345C132.173 14.8345 133.536 14.8345 134.954 14.4815V12.8993H134.559L133.136 13.2498H132.302C129.851 13.2498 129.851 13.2498 129.851 10.9641C129.851 8.67838 129.851 8.67838 131.654 8.67838C133.181 8.67838 133.181 8.67838 133.546 10.1298L135.307 9.6904C135.307 8.98692 135.307 7.09863 131.998 7.09863H131.294C127.811 7.09863 127.811 9.29794 127.811 10.6284V11.3319C127.811 12.65 127.811 14.8616 131.64 14.8616" fill="#333333"/>
<path d="M143.994 14.8598L145.431 13.7886C144.903 13.0851 144.903 13.0851 144.903 11.8386V7.27211H142.966V12.6284L141.089 13.0974C139.094 13.0974 139.094 13.0974 139.094 11.061V7.25977H137.157V11.3572C137.157 12.8086 137.157 14.8376 140.096 14.8376C141.638 14.8376 142.591 14.1193 143.11 13.7244L143.974 14.8672" fill="#333333"/>
<path fill-rule="evenodd" clip-rule="evenodd" d="M150.909 4.64053C149.956 4.64053 149.956 4.64053 149.487 4.1123L148.637 4.77136C149.561 5.95863 150.03 6.04749 151.379 6.04749H151.702C153.036 6.04749 153.52 5.95937 154.419 4.77136L153.57 4.1123C153.115 4.64053 153.115 4.64053 152.147 4.64053H150.9M154.481 14.8842L155.918 13.8129C155.39 13.1095 155.39 13.1095 155.39 11.8629V7.29648H153.453V12.6528L151.576 13.1218C149.625 13.1218 149.581 13.1218 149.581 11.0854V7.28414H147.644V11.3816C147.644 12.833 147.644 14.862 150.583 14.862C152.125 14.862 153.078 14.1437 153.597 13.7488L154.461 14.8916L154.481 14.8842Z" fill="#333333"/>
<path d="M161.53 14.8345C162.059 14.8345 163.422 14.8345 164.84 14.4815V12.8993H164.445L163.022 13.2498H162.185C159.734 13.2498 159.734 13.2498 159.734 10.9641C159.734 8.67838 159.734 8.67838 161.537 8.67838C163.064 8.67838 163.064 8.67838 163.429 10.1298L165.19 9.6904C165.19 8.98692 165.19 7.09863 161.881 7.09863H161.177C157.694 7.09863 157.694 9.29794 157.694 10.6284V11.3319C157.695 12.65 157.695 14.8616 161.523 14.8616" fill="#333333"/>
<path d="M167.458 7.28193V14.6623H169.394V11.799H171.77C171.77 12.6062 172.299 13.3096 173.309 14.6623H175.376V14.1045L173.146 11.1424C175.023 9.73547 175.023 9.73547 175.023 7.88421V7.26959H172.911V7.88421C172.911 10.1279 172.911 10.1279 170.711 10.1279H169.392V7.26465H167.455" fill="#333333"/>
<path d="M184.253 14.8598L185.69 13.7886C185.162 13.0851 185.162 13.0851 185.162 11.8386V7.27211H183.225V12.6284L181.348 13.0974C179.353 13.0974 179.353 13.0974 179.353 11.061V7.25977H177.416V11.3572C177.416 12.8086 177.416 14.8376 180.355 14.8376C181.897 14.8376 182.85 14.1193 183.369 13.7244L184.233 14.8672" fill="#333333"/>
<path fill-rule="evenodd" clip-rule="evenodd" d="M189.44 10.2931C189.44 8.66649 189.44 8.66649 191.245 8.66649C193.048 8.66649 193.048 8.66649 193.048 10.2931H189.442M189.442 11.6112H191.248C193.139 11.5964 193.698 11.626 194.335 11.4792L195.083 11.3034V10.5851C195.083 9.36824 195.083 7.08008 191.601 7.08008H190.897C187.414 7.08008 187.414 9.36577 187.414 10.6098V11.3133C187.414 12.6314 187.444 14.8431 191.267 14.8431C191.84 14.8431 193.13 14.8431 194.528 14.4901V12.9079H194.132L192.725 13.2584H191.228C189.422 13.2581 189.422 13.2581 189.422 11.6317L189.442 11.6112Z" fill="#333333"/>
</g>
<defs>
<clipPath id="clip0_1654_1346">
<rect width="246" height="39" fill="white"/>
</clipPath>
</defs>
</svg>
