<svg width="130" height="46" viewBox="0 0 130 46" fill="none" xmlns="http://www.w3.org/2000/svg">
<path fill-rule="evenodd" clip-rule="evenodd" d="M125.751 36.3249C125.607 36.6407 125.174 37.0715 124.308 37.0715C122.604 37.0715 122.604 37.0715 122.604 37.0715C122.604 32.9364 122.604 32.9364 122.604 32.9364C122.604 32.7641 122.806 32.5057 123.066 32.5057C124.452 32.5057 124.452 32.5057 124.452 32.5057C124.712 32.5057 125.491 32.5631 125.838 33.3672C126.04 33.7979 126.04 34.1999 126.04 34.8317C126.011 35.406 126.011 35.8941 125.751 36.3249ZM128.898 30.9263C127.916 29.95 126.531 29.8926 125.809 29.8926C120.699 29.8926 120.699 29.8926 120.699 29.8926C119.515 29.8926 118.649 30.7253 118.649 31.6442C118.649 43.2166 118.649 43.2166 118.649 43.2166C122.576 43.2166 122.576 43.2166 122.576 43.2166C122.576 39.6272 122.576 39.6272 122.576 39.6272C125.462 39.6272 125.462 39.6272 125.462 39.6272C126.588 39.6272 128.147 39.5697 129.158 38.3062C129.937 37.2151 129.995 35.3485 129.995 34.4871C130.024 33.5395 129.966 31.9601 128.898 30.9263Z" fill="#333333"/>
<path fill-rule="evenodd" clip-rule="evenodd" d="M110.537 32.5057C110.855 32.3908 111.432 32.3334 111.894 32.3334C112.096 32.3334 112.616 32.3908 112.934 32.3908C113.511 32.5057 113.655 32.8216 113.655 33.0513C113.655 33.2236 113.511 33.5969 112.991 33.5969C110.133 33.5969 110.133 33.5969 110.133 33.5969C110.076 33.1087 110.133 32.678 110.537 32.5057ZM110.335 36.6695C110.133 36.4397 110.133 36.1239 110.133 35.8654C115.878 35.8654 115.878 35.8654 115.878 35.8654C116.196 35.8654 116.542 35.808 116.86 35.5783C117.524 35.1475 117.524 34.4296 117.524 33.8266C117.524 32.7354 117.379 31.2709 116.427 30.4956C115.589 29.8926 114.204 29.8926 112.067 29.8926C110.104 29.8926 108.084 29.8926 107.102 30.7828C106.207 31.7017 106.265 33.1374 106.265 34.9752C106.265 36.7269 106.409 37.7607 106.842 38.4211C107.622 39.6846 108.979 39.6846 110.566 39.6846C117.148 39.6846 117.148 39.6846 117.148 39.6846C117.148 37.0715 117.148 37.0715 117.148 37.0715C112.067 37.0715 112.067 37.0715 112.067 37.0715C111.375 37.1002 110.653 37.1576 110.335 36.6695Z" fill="#333333"/>
<path fill-rule="evenodd" clip-rule="evenodd" d="M104.995 39.7133V29.8926H101.04V33.3672H97.6044V29.8926H93.6494V39.7133H97.6044V35.9803H101.04V39.7133H104.995Z" fill="#333333"/>
<path fill-rule="evenodd" clip-rule="evenodd" d="M71.9979 32.5057C72.3155 32.3908 72.9217 32.3334 73.3836 32.3334C73.5857 32.3334 74.1053 32.3908 74.4517 32.3908C75.058 32.5057 75.1734 32.8216 75.1734 33.0513C75.1734 33.2236 75.1157 33.5969 74.5095 33.5969C71.5938 33.5969 71.5938 33.5969 71.5938 33.5969C71.536 33.1087 71.6226 32.678 71.9979 32.5057ZM71.8247 36.6695C71.6804 36.4397 71.6226 36.1239 71.6226 35.8654C77.4252 35.8654 77.4252 35.8654 77.4252 35.8654C77.7427 35.8654 78.0892 35.808 78.4933 35.5783C79.0996 35.1475 79.0996 34.4296 79.0996 33.8266C79.0996 32.7354 79.0418 31.2709 77.9737 30.4956C77.1076 29.8926 75.722 29.8926 73.6146 29.8926C71.5649 29.8926 69.6018 29.8926 68.5914 30.7828C67.6099 31.7017 67.7254 33.1374 67.7254 34.9752C67.7254 36.7269 67.7831 37.7607 68.245 38.4211C69.1111 39.6846 70.4101 39.6846 71.9979 39.6846C78.7243 39.6846 78.7243 39.6846 78.7243 39.6846C78.7243 37.0715 78.7243 37.0715 78.7243 37.0715C73.5857 37.0715 73.5857 37.0715 73.5857 37.0715C72.864 37.1002 72.1423 37.1576 71.8247 36.6695Z" fill="#333333"/>
<path fill-rule="evenodd" clip-rule="evenodd" d="M62.9333 39.7133V32.5057H66.8594V29.8926H55.0811V32.5057H59.0072V39.7133H62.9333Z" fill="#333333"/>
<path fill-rule="evenodd" clip-rule="evenodd" d="M54.0418 39.7133V29.8926H50.1446V33.3672H46.7381V29.8926H42.8408V39.7133H46.7381V35.9803H50.1446V39.7133H54.0418Z" fill="#333333"/>
<path fill-rule="evenodd" clip-rule="evenodd" d="M36.9806 36.4684C36.7786 36.6982 36.3167 37.1289 35.2774 37.1289C34.0938 37.1289 33.6319 36.5833 33.5164 36.4684C33.3721 36.2962 33.1989 35.808 33.1989 34.8029C33.1989 33.6543 33.401 33.2523 33.5164 33.08C33.7185 32.8216 34.1804 32.477 35.2774 32.477C36.3167 32.477 36.7786 32.8216 36.9806 33.08C37.1827 33.3097 37.3848 33.7979 37.3848 34.8029C37.3559 35.4634 37.2982 36.0664 36.9806 36.4684ZM39.983 30.8402C38.7994 29.8926 36.894 29.8926 35.2485 29.8926C33.5453 29.8926 31.6977 29.8926 30.5141 30.8402C29.1862 31.9314 29.1284 33.8553 29.1284 34.8029C29.1284 35.7506 29.1862 37.6745 30.5141 38.7657C31.6977 39.6559 33.5453 39.7133 35.2485 39.7133C36.894 39.7133 38.7994 39.6559 39.983 38.7657C41.3109 37.6745 41.3687 35.7506 41.3687 34.8029C41.3687 33.8553 41.3109 31.9314 39.983 30.8402Z" fill="#333333"/>
<path fill-rule="evenodd" clip-rule="evenodd" d="M90.7049 22.8575C90.7049 20.3592 90.7049 20.3592 90.7049 20.3592C86.8654 20.3592 86.8653 20.3592 86.8653 20.3592C86.288 20.3592 85.3065 20.4166 84.8446 19.6987C84.7002 19.5839 84.527 19.1531 84.527 17.9758C84.527 17.4876 84.527 17.0856 84.6714 16.7123C84.9312 16.1093 85.3931 15.5637 86.6921 15.5637C90.7337 15.5637 90.7337 15.5637 90.7337 15.5637C90.7337 13.0654 90.7337 13.0654 90.7337 13.0654C84.8734 13.0654 84.8734 13.0654 84.8734 13.0654C83.6321 13.0654 82.5351 13.2377 81.7556 14.0992C80.6586 15.133 80.572 16.6549 80.572 18.1194C80.572 19.5839 80.7164 20.8186 81.4958 21.7088C82.4773 22.7426 83.8342 22.8575 84.7002 22.8575H90.7049Z" fill="#333333"/>
<path fill-rule="evenodd" clip-rule="evenodd" d="M79.0709 22.8578V13.0371H75.1737V16.4543H71.6806V13.0371H67.7256V22.8578H71.6806V19.1535H75.1737V22.8578H79.0709Z" fill="#333333"/>
<path fill-rule="evenodd" clip-rule="evenodd" d="M62.4714 19.6417C62.4714 19.7566 62.4714 20.015 62.2694 20.1299C62.125 20.1873 61.8652 20.2447 61.692 20.2447C59.6712 20.2447 59.6712 20.2447 59.6712 20.2447C59.2093 20.2447 58.9495 20.015 59.0072 19.5843C59.0072 19.1535 59.3248 19.0387 59.7289 19.0387C62.4714 19.0387 62.4714 19.0387 62.4714 19.0387C62.4714 19.6417 62.4714 19.6417 62.4714 19.6417ZM65.416 13.8986C64.9541 13.4678 64.0303 13.0371 62.789 13.0371C55.774 13.0371 55.774 13.0371 55.774 13.0371C55.774 15.4779 55.774 15.4779 55.774 15.4779C61.0858 15.4779 61.0858 15.4779 61.0858 15.4779C61.4899 15.4779 62.0096 15.4779 62.2694 15.8512C62.4714 16.1097 62.4714 16.3394 62.4714 16.5117C62.4714 16.6266 62.4714 16.6266 62.4714 16.6266C57.8814 16.6266 57.8814 16.6266 57.8814 16.6266C57.2174 16.6266 56.5823 16.684 55.976 17.0573C55.11 17.6603 55.0522 18.6941 55.0522 19.5556C55.0522 20.3596 55.11 21.6231 55.8894 22.3123C56.4668 22.8004 57.1885 22.8578 57.8525 22.8578C64.0015 22.8578 64.0015 22.8578 64.0015 22.8578C64.6655 22.8578 65.3006 22.8004 65.8491 22.3123C66.311 21.8815 66.3687 21.2785 66.3687 20.7903C66.3687 16.6553 66.3687 16.6553 66.3687 16.6553C66.3976 15.8512 66.2821 14.7026 65.416 13.8986Z" fill="#333333"/>
<path fill-rule="evenodd" clip-rule="evenodd" d="M49.8847 19.412C49.6827 19.7278 49.3074 20.216 48.4413 20.216C46.7381 20.216 46.7381 20.216 46.7381 20.216C46.7381 16.081 46.7381 16.081 46.7381 16.081C46.7381 15.8512 46.9401 15.6502 47.2 15.6502C48.5568 15.6502 48.5568 15.6502 48.5568 15.6502C48.7589 15.6502 49.596 15.7077 49.9136 16.5117C50.0291 16.885 50.1157 17.3445 50.1157 17.8901C50.1445 18.4931 50.0579 19.0387 49.8847 19.412ZM52.9448 14.0709C51.9633 13.0945 50.6064 13.0371 49.9425 13.0371C44.8039 13.0371 44.8039 13.0371 44.8039 13.0371C43.7069 13.0371 42.8408 13.8699 42.8408 14.7888C42.8408 26.3611 42.8408 26.3612 42.8408 26.3612C46.7381 26.3612 46.7381 26.3612 46.7381 26.3612C46.7381 22.7717 46.7381 22.7717 46.7381 22.7717C49.596 22.7717 49.5961 22.7717 49.5961 22.7717C50.6353 22.7717 52.252 22.6568 53.1757 21.4508C54.0129 20.3596 54.0129 18.4356 54.0129 17.6316C54.0418 16.684 53.9841 15.0472 52.9448 14.0709Z" fill="#333333"/>
<path fill-rule="evenodd" clip-rule="evenodd" d="M19.7749 23.8912C16.8303 29.8927 18.9377 36.3825 25.0579 39.7135C26.7034 39.7135 26.7034 39.7135 26.7034 39.7135C26.7034 15.5924 26.7034 15.5924 26.7034 15.5924C23.6144 18.2055 21.2183 20.9909 19.7749 23.8912ZM0 2.49805C0 10.4236 0 10.4236 0 10.4236C10.97 10.4236 10.97 10.4236 10.97 10.4236C13.5682 7.40842 16.6571 4.79529 19.977 2.49805C2.20249e-06 2.49805 0 2.49805 0 2.49805ZM4.50348 25.8438C4.50348 21.3068 6.26446 16.8846 8.86263 13.1228C-1.10125e-06 13.1228 0 13.1228 0 13.1228C0 39.7135 0 39.7135 0 39.7135C10.97 39.7135 10.97 39.7135 10.97 39.7135C6.98618 36.0092 4.56122 31.0988 4.50348 25.8438ZM52.5118 2.49805C44.6307 4.73786 36.0567 8.61447 29.5325 13.3525C29.5325 26.4469 29.5325 26.4469 29.5325 26.4469C41.0221 26.4469 41.0221 26.4469 41.0221 26.4469C41.0221 10.4523 41.0221 10.4523 41.0221 10.4523C71.6805 10.4523 71.6805 10.4523 71.6805 10.4523C71.6805 2.52676 71.6805 2.52676 71.6805 2.52676H52.5118V2.49805Z" fill="#333333"/>
<path fill-rule="evenodd" clip-rule="evenodd" d="M50.3466 42.9872C13.6547 56.1103 -15.1849 23.5181 26.6455 0C56.0914 0 56.0914 0 56.0914 0C41.484 3.24486 23.5277 12.4626 18.2448 23.2022C12.9619 33.9706 21.1317 47.8976 50.3466 42.9872Z" fill="#333333"/>
<path fill-rule="evenodd" clip-rule="evenodd" d="M86.288 29.5197C88.7418 29.5197 90.7049 28.2562 90.7049 26.3896C88.1644 26.3896 88.1644 26.3896 88.1644 26.3896C88.1644 27.165 87.3272 27.6531 86.288 27.6531C85.191 27.6531 84.3538 27.165 84.3538 26.3896C81.8134 26.3896 81.8134 26.3896 81.8134 26.3896C81.8134 28.2562 83.7475 29.5197 86.288 29.5197ZM90.0409 29.8355C88.8861 29.8355 88.5397 30.1801 88.2222 30.5534C84.4693 34.9469 84.4693 34.9469 84.4693 34.9469C84.4115 35.0043 84.2672 35.1766 84.0651 35.1766C83.9208 35.1766 83.9208 35.1192 83.9208 34.9469C84.1228 29.893 84.1228 29.893 84.1228 29.893C80.2256 29.893 80.2256 29.893 80.2256 29.893C80.2256 37.9046 80.2256 37.9046 80.2256 37.9046C80.2256 39.5988 81.5824 39.7137 82.4196 39.7137C83.2568 39.7137 83.7187 39.6563 84.3538 38.8809C88.049 34.6023 88.0489 34.6023 88.0489 34.6023C88.1933 34.43 88.3088 34.2864 88.4531 34.2864C88.5686 34.2864 88.5686 34.4013 88.5686 34.6023C88.3954 39.5988 88.3954 39.5988 88.3954 39.5988C92.2926 39.5988 92.2926 39.5988 92.2926 39.5988C92.2926 31.7595 92.2926 31.7595 92.2926 31.7595C92.3215 31.2713 92.2637 29.8355 90.0409 29.8355Z" fill="#333333"/>
</svg>
