<svg width="181" height="50" viewBox="0 0 181 50" fill="none" xmlns="http://www.w3.org/2000/svg">
<g clip-path="url(#clip0_1654_1312)">
<path d="M61.3334 45.3917C66.5718 46.223 71.861 46.6901 77.1632 46.7899C84.8839 46.9818 92.6063 46.4879 100.241 45.314C107.191 44.3127 114.005 42.5144 120.549 39.9542C123.492 38.8582 126.243 37.3001 128.701 35.3379C126.163 37.615 123.271 39.4593 120.141 40.7976C113.296 43.8694 106.117 46.1263 98.7514 47.5223C90.961 49.0814 83.043 49.9062 75.1004 49.9858C70.3373 50.073 65.575 49.7761 60.8591 49.098C55.8889 48.4679 51.0785 46.9138 46.6729 44.515C43.7386 42.7617 42.7679 41.186 43.0767 40.8641C43.3856 40.5423 44.8528 41.2414 47.8091 42.2069C52.2255 43.63 56.748 44.695 61.3334 45.3917Z" fill="#E47E1A"/>
<path fill-rule="evenodd" clip-rule="evenodd" d="M92.6186 23.1533L97.1084 13.7653H97.1966L102.161 23.1533H107.268L100.682 11.0244H96.3582L90.4014 23.1533H92.6186Z" fill="#333333"/>
<path fill-rule="evenodd" clip-rule="evenodd" d="M22.0071 17.8602L29.0561 17.7714C29.0044 18.9598 28.4455 20.068 27.5228 20.812C26.4564 21.543 25.1825 21.9053 23.8935 21.844C22.7726 21.8963 21.6609 21.6186 20.6944 21.045C19.9978 20.6203 19.3906 20.0623 18.9074 19.4027L18.5875 18.9144L16.293 20.2682C17.0903 21.1813 18.0523 21.9344 19.128 22.4876C20.7293 23.2868 22.5045 23.6684 24.2906 23.5973C26.3093 23.5973 29.4643 23.2977 31.7367 21.5555C33.1877 20.5819 34.0592 18.9434 34.0592 17.1888C34.0592 15.4343 33.1877 13.7958 31.7367 12.8222C29.5502 11.3703 26.9631 10.6516 24.3458 10.7693C22.7344 10.7221 21.1287 10.9819 19.6134 11.535C18.3869 11.9784 17.2615 12.6652 16.304 13.5546L18.5985 14.8862L19.1501 14.2759C19.6904 13.7075 20.3447 13.2612 21.0695 12.9665C21.9884 12.5699 22.9824 12.3806 23.9817 12.4116C25.3951 12.3097 26.7888 12.7904 27.8427 13.7432C28.4813 14.4077 28.8712 15.2744 28.9458 16.1957L22.0071 16.007V17.8602Z" fill="#333333"/>
<path fill-rule="evenodd" clip-rule="evenodd" d="M115.387 12.1669C116.73 12.0823 118.027 12.6724 118.851 13.7427C119.53 14.7132 119.865 15.8862 119.799 17.0717C119.863 18.257 119.529 19.4295 118.851 20.4008C117.977 21.4063 116.714 21.9833 115.387 21.9833C114.059 21.9833 112.796 21.4063 111.923 20.4008C111.245 19.4291 110.911 18.2569 110.974 17.0717C110.91 15.8863 111.244 14.7136 111.923 13.7427C112.747 12.6724 114.044 12.0823 115.387 12.1669ZM115.387 23.519C117.914 23.5857 120.4 22.8732 122.513 21.4772C123.921 20.4657 124.785 18.8555 124.852 17.1161C124.785 15.3768 123.921 13.7665 122.513 12.755C120.401 11.3551 117.915 10.6387 115.387 10.7021C112.853 10.6441 110.36 11.3598 108.238 12.755C106.787 13.7286 105.916 15.3671 105.916 17.1217C105.916 18.8762 106.787 20.5147 108.238 21.4883C110.362 22.8796 112.854 23.5915 115.387 23.5301" fill="#333333"/>
<path fill-rule="evenodd" clip-rule="evenodd" d="M76.8768 14.0869C77.3508 13.9329 77.8458 13.8543 78.3439 13.8538H78.8845V20.1569H78.3439C77.8457 20.1583 77.3504 20.0796 76.8768 19.9238C76.4996 19.8142 76.1499 19.625 75.8509 19.369C75.221 18.7435 74.8664 17.8902 74.8664 16.9998C74.8664 16.1094 75.221 15.2561 75.8509 14.6306C76.1497 14.3743 76.4994 14.1851 76.8768 14.0758M85.1502 21.6882C86.7693 21.6693 88.3567 21.2338 89.7612 20.4232C90.9804 19.7125 91.7292 18.4006 91.7248 16.9832C91.706 15.5778 90.9623 14.2834 89.7612 13.5653C88.3556 12.7574 86.7689 12.3221 85.1502 12.3003C84.6979 12.3003 84.2346 12.3003 83.7823 12.3003H83.2859V10.6357H78.719V12.3003H78.2667C77.8144 12.3003 77.3511 12.3003 76.8988 12.3003C75.2793 12.3167 73.6913 12.7524 72.2878 13.5653C71.0883 14.2849 70.3452 15.5784 70.3242 16.9832C70.3221 18.4 71.0703 19.7108 72.2878 20.4232C73.6902 21.2389 75.2789 21.6748 76.8988 21.6882C77.318 21.6882 77.7703 21.6882 78.2667 21.6882H78.741V23.4526H83.308V21.7437H83.7823C84.2787 21.7437 84.731 21.7437 85.1502 21.7437M85.1502 14.1313C85.5275 14.2406 85.8773 14.4298 86.1761 14.6861C86.806 15.3116 87.1606 16.1649 87.1606 17.0553C87.1606 17.9457 86.806 18.799 86.1761 19.4245C85.8771 19.6805 85.5274 19.8696 85.1502 19.9793C84.6691 20.1354 84.1665 20.2141 83.661 20.2124H83.1425V13.8538H83.661C84.1663 13.8539 84.6687 13.9325 85.1502 14.0869" fill="#333333"/>
<path fill-rule="evenodd" clip-rule="evenodd" d="M59.8445 12.167C61.1863 12.0882 62.481 12.6772 63.3084 13.7428C63.9883 14.7133 64.3226 15.8863 64.257 17.0718C64.3208 18.2571 63.9867 19.4296 63.3084 20.4009C62.4307 21.4074 61.1644 21.9845 59.8335 21.9845C58.5026 21.9845 57.2363 21.4074 56.3587 20.4009C55.6818 19.4293 55.3514 18.2561 55.421 17.0718C55.3488 15.8872 55.6794 14.7132 56.3587 13.7428C57.187 12.6723 58.4876 12.0825 59.8335 12.167M59.8335 23.5191C62.36 23.583 64.8458 22.8707 66.9597 21.4773C68.401 20.497 69.2647 18.8609 69.2647 17.1107C69.2647 15.3604 68.401 13.7244 66.9597 12.744C62.589 10.0124 57.056 10.0124 52.6853 12.744C51.2343 13.7176 50.3628 15.3561 50.3628 17.1107C50.3628 18.8652 51.2343 20.5037 52.6853 21.4773C54.806 22.8738 57.2997 23.5861 59.8335 23.5191Z" fill="#333333"/>
<path fill-rule="evenodd" clip-rule="evenodd" d="M42.5917 18.7591H43.4411C45.0986 18.8924 46.761 18.5702 48.2507 17.827C49.3116 17.2221 49.9559 16.0794 49.9274 14.853C49.951 13.6452 49.3047 12.5246 48.2507 11.9456C47.1476 11.2909 45.7025 11.0801 43.2425 11.0801H35.4214V23.1979H39.9993V18.7591H42.5917ZM42.5917 12.9444C43.2174 12.9417 43.8331 13.1022 44.3788 13.4104C44.8621 13.7161 45.1605 14.2456 45.173 14.8197C45.1862 15.4501 44.8618 16.0391 44.3236 16.3622C43.7985 16.6862 43.1966 16.8625 42.5807 16.8727H39.9994V12.8556H42.1173C42.2753 12.8442 42.4338 12.8442 42.5917 12.8556V12.9444Z" fill="#333333"/>
<path fill-rule="evenodd" clip-rule="evenodd" d="M7.18133 13.8764L9.46479 18.0044H4.9089L7.11514 13.7876H7.18133V13.8764ZM10.3914 19.6579L12.355 23.1978H17.4624L10.5348 10.9912H6.29883L0 23.1978H2.27243L4.07052 19.7023L10.3914 19.6579Z" fill="#333333"/>
<path fill-rule="evenodd" clip-rule="evenodd" d="M124.123 12.8554H129.043V23.1533H133.61V12.8554H138.541V11.0244H124.123V12.8554Z" fill="#333333"/>
<path fill-rule="evenodd" clip-rule="evenodd" d="M6.00099 34.9493L4.6993 34.2946L10.0825 33.5955C10.1818 33.7619 10.2701 33.9062 10.3804 34.0616L6.00099 34.9493ZM20.4629 34.9493L21.7646 34.2946L16.4034 33.6177C16.3336 33.791 16.2368 33.9521 16.1166 34.0948L20.4629 34.9493ZM19.6797 35.0492L18.0471 35.6262L15.7305 34.8827L15.532 34.8161C15.6078 34.7515 15.6746 34.6768 15.7305 34.5942C15.8298 34.5165 15.907 34.4056 15.9953 34.3168L19.6797 35.0492ZM23.9819 33.429L22.4927 34.1614L16.4917 33.429C16.4917 33.2848 16.591 33.1294 16.6351 32.9741L23.9819 33.429ZM24.5114 33.2071L26.4198 31.8977H15.9291C15.9414 32.3136 15.874 32.728 15.7305 33.1183C15.3572 34.1377 14.3715 34.7972 13.2926 34.7496C12.2363 34.747 11.2735 34.14 10.8106 33.1849C10.6379 32.79 10.5514 32.3624 10.5569 31.931H0L1.93046 33.1849L9.99429 32.741C10.1281 33.3212 10.4094 33.8566 10.8106 34.2946C11.4444 34.995 12.3401 35.3972 13.2816 35.4043C14.2199 35.4277 15.1176 35.0191 15.7195 34.2946C16.0877 33.8614 16.3519 33.3488 16.4917 32.7965L24.5114 33.2071ZM15.6864 36.6138L15.885 37.0133L15.6864 37.1132L15.1348 37.3795L14.5061 36.059C14.0992 36.2093 13.6707 36.2917 13.2375 36.3031C12.7695 36.3232 12.3019 36.2555 11.8586 36.1034L11.3291 37.3684C11.1331 37.3948 10.9342 37.3517 10.7665 37.2464C10.6725 37.19 10.6049 37.0981 10.5789 36.9911L10.7665 36.6582L11.2188 35.7927C11.0762 35.7073 10.9431 35.6068 10.8216 35.4931L11.1967 35.0048C11.8004 35.414 12.5095 35.6377 13.2375 35.6484C13.9707 35.6585 14.6845 35.4113 15.2562 34.9493L15.6754 35.0825L15.8519 35.1491L15.6754 35.3044C15.5518 35.4586 15.4025 35.59 15.2341 35.6928L15.6864 36.6138ZM15.6864 29.7893C16.1125 30.3438 16.4068 30.9891 16.5468 31.6757H15.8739C15.8282 31.4602 15.7655 31.2487 15.6864 31.0432C15.2004 29.8359 14.347 28.8143 13.2485 28.1247C13.1051 28.0359 12.9838 27.9361 12.8404 27.8584L13.2485 28.0027C14.1993 28.3739 15.0389 28.9854 15.6864 29.7782V29.7893ZM13.8663 34.4832C14.1034 34.4356 14.3263 34.333 14.5171 34.1836L13.414 31.9642L14.5171 31.3983L13.5794 30.5327L13.2044 30.7214L11.5828 31.4982L12.0571 32.6079L12.8183 32.2417L13.8663 34.4832ZM10.9761 34.8161L10.7885 34.6497C10.6684 34.5444 10.561 34.4252 10.4686 34.2946L6.79524 35.0381L8.36167 35.604L10.9761 34.8161ZM9.97223 33.429C9.91707 33.2848 9.86192 33.1294 9.81779 32.9741L2.45996 33.429L3.94918 34.1947L9.97223 33.429Z" fill="#333333"/>
<path d="M159.393 18.1211C148.493 18.2148 143.567 20.9927 134.381 27.9674L132.498 29.9921C141.963 22.8302 147.399 22.224 155.188 22.2896C155.912 22.3365 156.603 22.377 157.041 21.4084L159.393 18.1211Z" fill="url(#paint0_linear_1654_1312)"/>
<path d="M161.402 9.80567C145.94 12.4181 139.113 23.3045 134.379 27.9574C143.618 19.0894 151.326 15.0928 158.099 14.3116C158.7 13.4867 160.772 10.7311 161.403 9.80587L161.402 9.80567Z" fill="url(#paint1_linear_1654_1312)"/>
<path d="M158.09 14.3115C147.787 15.7771 141.05 21.7517 134.841 27.4452C134.667 27.6259 134.039 28.3445 133.857 28.5157C139.269 24.3476 143.814 20.0298 155.104 18.4269C155.666 17.7645 157.312 15.5146 158.09 14.3115Z" fill="url(#paint2_linear_1654_1312)"/>
<path d="M158.305 17.749C156.509 17.749 154.689 18.6365 154.515 19.1428C154.217 19.9833 154.683 19.6271 156.035 20.4645C157.179 21.1676 156.939 21.4208 156.834 21.7801C157.876 20.2365 159.753 17.9772 159.753 17.9772C159.297 17.8178 158.801 17.749 158.305 17.749Z" fill="url(#paint3_linear_1654_1312)"/>
<path d="M177.541 4.50293C174.384 8.83394 167.194 8.45583 164.956 8.76518C162.853 9.05892 161.514 9.6089 160.673 10.7213L157.711 14.8273C158.357 14.2273 160.306 13.9336 162.412 13.8774H162.709H162.979C163.262 13.868 163.577 13.8524 163.908 13.8399C166.902 13.718 171.059 13.2837 173.468 10.3526L177.103 5.12469L177.541 4.50293Z" fill="url(#paint4_linear_1654_1312)"/>
<path d="M180.443 0C177.109 3.42169 173.469 3.56231 170.381 3.99979C169.456 4.12478 167.371 4.09353 165.632 5.24659C163.899 6.39341 161.82 9.13073 160.793 10.5681C161.748 9.50883 163.016 9.20886 164.86 8.987C166.725 8.76514 169.414 8.80267 171.327 8.52769C173.15 8.2777 176.269 6.22286 177.307 4.77604L180.443 0Z" fill="url(#paint5_linear_1654_1312)"/>
<path d="M173.588 10.1904C172.191 12.0528 169.701 12.8935 166.71 13.3309C164.436 13.6559 161.853 13.7527 161.111 13.7996C159.834 13.8559 158.146 14.2777 157.681 14.8621C156.248 16.7089 154.887 18.4275 154.515 19.1431C155.389 18.2963 158.251 18.39 161.736 18.2244C165.196 18.0557 168.713 16.4964 171.492 13.2091L173.588 10.1904Z" fill="url(#paint6_linear_1654_1312)"/>
<path d="M47.1862 31.424C47.1566 31.5424 47.1268 31.6682 47.0965 31.7958C47.0317 32.0688 46.9647 32.3501 46.8947 32.5854L47.1862 31.424ZM47.1862 31.424C47.1911 31.4427 47.1961 31.4616 47.201 31.4806C47.295 31.8399 47.402 32.2484 47.5089 32.5863L47.9337 33.9574H46.4901M47.1862 31.424L46.4901 33.9574ZM38 30.0707H37.95V30.1207V36.8897V36.9397H38H39.5889H39.6389V36.8897V34.1076H39.896C40.3172 34.1076 40.6029 34.248 40.8139 34.478C41.0273 34.7107 41.1677 35.0382 41.2891 35.4186C41.3282 35.5343 41.3659 35.6523 41.4035 35.7702C41.528 36.1596 41.6544 36.5548 41.8433 36.913L41.8573 36.9397H41.8875H43.6246H43.7058L43.6693 36.8672C43.3871 36.3072 43.179 35.7054 42.9691 35.0988C42.9282 34.9806 42.8871 34.8623 42.8456 34.744C42.6962 34.3344 42.516 33.973 42.2541 33.6874C42.0061 33.4169 41.6868 33.2162 41.2565 33.104L43.695 30.1526L43.7626 30.0707H43.6565H41.6968H41.6707L41.6558 30.0922L39.7109 32.8928H39.6389V30.1207V30.0707H39.5889H38ZM48.7377 36.9048L48.7486 36.9397H48.7853H50.5331H50.6021L50.5806 36.8741L48.3562 30.1051L48.3448 30.0707H48.3087H46.1901H46.1537L46.1425 30.1054L43.971 36.8745L43.9501 36.9397H44.0186H45.6817H45.7192L45.7296 36.9038L46.2276 35.2023H48.1978L48.7377 36.9048ZM51.4285 36.8897V36.9397H51.4785H53.0779H53.1279V36.8897V34.5191C53.2708 34.5418 53.4429 34.5495 53.6287 34.5495C54.5889 34.5495 55.4181 34.317 55.9813 33.8242C56.4291 33.441 56.6553 32.8532 56.6553 32.1795C56.6553 31.5015 56.3518 30.924 55.8726 30.5728C55.3834 30.2018 54.6607 30.0205 53.6605 30.0205C52.6735 30.0205 51.9717 30.0809 51.4706 30.1617L51.4285 30.1685V30.2111V36.8897ZM57.6441 30.0707H57.5941V30.1207V36.8897V36.9397H57.6441H59.2541H59.3041V36.8897V31.4261H61.9552H62.0052V31.3761V30.1207V30.0707H61.9552H57.6441ZM53.1279 33.2434V31.3256C53.2463 31.3017 53.4502 31.2855 53.7347 31.2855C54.1357 31.2855 54.4411 31.3769 54.6451 31.5383C54.8475 31.6984 54.9558 31.9318 54.9558 32.2298C54.9558 32.557 54.8297 32.8157 54.6029 32.9939C54.3747 33.1732 54.0399 33.2744 53.6183 33.2744C53.399 33.2744 53.2518 33.2662 53.1279 33.2434ZM65.6102 29.9502C64.549 29.9502 63.667 30.3342 63.0504 30.9774C62.4341 31.6205 62.0858 32.5196 62.0858 33.5454C62.0858 34.5252 62.4019 35.4017 62.9877 36.0337C63.574 36.6661 64.4271 37.0502 65.4937 37.0502C66.5531 37.0502 67.4433 36.7127 68.0687 36.089C68.6942 35.4654 69.05 34.5604 69.05 33.4349C69.05 32.4855 68.7474 31.6141 68.1642 30.9795C67.5805 30.3442 66.7192 29.9502 65.6102 29.9502ZM65.5785 31.2654C66.1166 31.2654 66.531 31.5172 66.8126 31.9195C67.0953 32.3233 67.2445 32.8799 67.2445 33.4851C67.2445 34.1358 67.0899 34.6997 66.805 35.0994C66.5212 35.4976 66.1068 35.735 65.5785 35.735C65.0544 35.735 64.6349 35.5093 64.3448 35.1211C64.0538 34.7316 63.8913 34.1756 63.8913 33.5153C63.8913 32.8648 64.0486 32.301 64.3374 31.9013C64.6251 31.503 65.0446 31.2654 65.5785 31.2654Z" fill="#F5822B"/>
<path d="M47.1862 31.424C47.1566 31.5424 47.1268 31.6682 47.0965 31.7958C47.0317 32.0688 46.9647 32.3501 46.8947 32.5854M47.1862 31.424L46.8947 32.5854M47.1862 31.424C47.1911 31.4427 47.1961 31.4616 47.201 31.4806C47.295 31.8399 47.402 32.2484 47.5089 32.5863L47.9337 33.9574H46.4901M47.1862 31.424L46.4901 33.9574M46.8947 32.5854L46.4901 33.9574M38 30.0707H37.95V30.1207V36.8897V36.9397H38H39.5889H39.6389V36.8897V34.1076H39.896C40.3172 34.1076 40.6029 34.248 40.8139 34.478C41.0273 34.7107 41.1677 35.0382 41.2891 35.4186C41.3282 35.5343 41.3659 35.6523 41.4035 35.7702C41.528 36.1596 41.6544 36.5548 41.8433 36.913L41.8573 36.9397H41.8875H43.6246H43.7058L43.6693 36.8672C43.3871 36.3072 43.179 35.7054 42.9691 35.0988C42.9282 34.9806 42.8871 34.8623 42.8456 34.744C42.6962 34.3344 42.516 33.973 42.2541 33.6874C42.0061 33.4169 41.6868 33.2162 41.2565 33.104L43.695 30.1526L43.7626 30.0707H43.6565H41.6968H41.6707L41.6558 30.0922L39.7109 32.8928H39.6389V30.1207V30.0707H39.5889H38ZM48.7377 36.9048L48.7486 36.9397H48.7853H50.5331H50.6021L50.5806 36.8741L48.3562 30.1051L48.3448 30.0707H48.3087H46.1901H46.1537L46.1425 30.1054L43.971 36.8745L43.9501 36.9397H44.0186H45.6817H45.7192L45.7296 36.9038L46.2276 35.2023H48.1978L48.7377 36.9048ZM51.4285 36.8897V36.9397H51.4785H53.0779H53.1279V36.8897V34.5191C53.2708 34.5418 53.4429 34.5495 53.6287 34.5495C54.5889 34.5495 55.4181 34.317 55.9813 33.8242C56.4291 33.441 56.6553 32.8532 56.6553 32.1795C56.6553 31.5015 56.3518 30.924 55.8726 30.5728C55.3834 30.2018 54.6607 30.0205 53.6605 30.0205C52.6735 30.0205 51.9717 30.0809 51.4706 30.1617L51.4285 30.1685V30.2111V36.8897ZM57.6441 30.0707H57.5941V30.1207V36.8897V36.9397H57.6441H59.2541H59.3041V36.8897V31.4261H61.9552H62.0052V31.3761V30.1207V30.0707H61.9552H57.6441ZM53.1279 33.2434V31.3256C53.2463 31.3017 53.4502 31.2855 53.7347 31.2855C54.1357 31.2855 54.4411 31.3769 54.6451 31.5383C54.8475 31.6984 54.9558 31.9318 54.9558 32.2298C54.9558 32.557 54.8297 32.8157 54.6029 32.9939C54.3747 33.1732 54.0399 33.2744 53.6183 33.2744C53.399 33.2744 53.2518 33.2662 53.1279 33.2434ZM65.6102 29.9502C64.549 29.9502 63.667 30.3342 63.0504 30.9774C62.4341 31.6205 62.0858 32.5196 62.0858 33.5454C62.0858 34.5252 62.4019 35.4017 62.9877 36.0337C63.574 36.6661 64.4271 37.0502 65.4937 37.0502C66.5531 37.0502 67.4433 36.7127 68.0687 36.089C68.6942 35.4654 69.05 34.5604 69.05 33.4349C69.05 32.4855 68.7474 31.6141 68.1642 30.9795C67.5805 30.3442 66.7192 29.9502 65.6102 29.9502ZM65.5785 31.2654C66.1166 31.2654 66.531 31.5172 66.8126 31.9195C67.0953 32.3233 67.2445 32.8799 67.2445 33.4851C67.2445 34.1358 67.0899 34.6997 66.805 35.0994C66.5212 35.4976 66.1068 35.735 65.5785 35.735C65.0544 35.735 64.6349 35.5093 64.3448 35.1211C64.0538 34.7316 63.8913 34.1756 63.8913 33.5153C63.8913 32.8648 64.0486 32.301 64.3374 31.9013C64.6251 31.503 65.0446 31.2654 65.5785 31.2654Z" stroke="#F5822B" stroke-width="0.1"/>
</g>
<defs>
<linearGradient id="paint0_linear_1654_1312" x1="130.423" y1="33.2991" x2="154.963" y2="42.022" gradientUnits="userSpaceOnUse">
<stop stop-color="#C4161C"/>
<stop offset="0.3" stop-color="#ED1C24"/>
<stop offset="0.5" stop-color="#F8ABAD"/>
<stop offset="0.7191" stop-color="#ED1C24"/>
<stop offset="1" stop-color="#C4161C"/>
</linearGradient>
<linearGradient id="paint1_linear_1654_1312" x1="139.682" y1="12.9766" x2="151.671" y2="32.3334" gradientUnits="userSpaceOnUse">
<stop stop-color="white"/>
<stop offset="0.3427" stop-color="white"/>
<stop offset="0.55" stop-color="white"/>
<stop offset="0.9101" stop-color="#C7D2EC"/>
<stop offset="1" stop-color="#C7D2EC"/>
</linearGradient>
<linearGradient id="paint2_linear_1654_1312" x1="137.272" y1="25.0313" x2="148.872" y2="32.6278" gradientUnits="userSpaceOnUse">
<stop stop-color="#00529B"/>
<stop offset="0.1067" stop-color="#00529B"/>
<stop offset="0.5" stop-color="#7D97CD"/>
<stop offset="0.5271" stop-color="#7492C9"/>
<stop offset="0.7323" stop-color="#3670B1"/>
<stop offset="0.8825" stop-color="#0F5AA1"/>
<stop offset="0.9607" stop-color="#00529B"/>
<stop offset="1" stop-color="#00529B"/>
</linearGradient>
<linearGradient id="paint3_linear_1654_1312" x1="153.19" y1="17.2168" x2="158.336" y2="23.0533" gradientUnits="userSpaceOnUse">
<stop stop-color="#C4161C"/>
<stop offset="0.5" stop-color="#ED1C24"/>
<stop offset="1" stop-color="#F8ABAD"/>
</linearGradient>
<linearGradient id="paint4_linear_1654_1312" x1="154.496" y1="13.2503" x2="177.095" y2="21.5101" gradientUnits="userSpaceOnUse">
<stop stop-color="#C7D6EE"/>
<stop offset="0.073" stop-color="#C7D6EE"/>
<stop offset="0.1184" stop-color="#AFC6E4"/>
<stop offset="0.2144" stop-color="#719DCA"/>
<stop offset="0.3524" stop-color="#0E5BA1"/>
<stop offset="0.3708" stop-color="#00529B"/>
<stop offset="0.4298" stop-color="#08579E"/>
<stop offset="0.5221" stop-color="#1E66A8"/>
<stop offset="0.6362" stop-color="#437EB7"/>
<stop offset="0.7675" stop-color="#75A0CC"/>
<stop offset="0.9118" stop-color="#B5CAE7"/>
<stop offset="0.9494" stop-color="#C7D6EE"/>
<stop offset="1" stop-color="#C7D6EE"/>
</linearGradient>
<linearGradient id="paint5_linear_1654_1312" x1="152.213" y1="12.6302" x2="188.177" y2="22.5165" gradientUnits="userSpaceOnUse">
<stop stop-color="white"/>
<stop offset="0.1742" stop-color="white"/>
<stop offset="0.2301" stop-color="#F9FAFD"/>
<stop offset="0.3056" stop-color="#E8ECF6"/>
<stop offset="0.3539" stop-color="#D9E0F1"/>
<stop offset="0.4693" stop-color="#EDF0F8"/>
<stop offset="0.5916" stop-color="#FAFBFD"/>
<stop offset="0.7" stop-color="white"/>
<stop offset="1" stop-color="white"/>
</linearGradient>
<linearGradient id="paint6_linear_1654_1312" x1="152.005" y1="25.8586" x2="166.829" y2="29.9397" gradientUnits="userSpaceOnUse">
<stop stop-color="#F8ABAD"/>
<stop offset="0.0562" stop-color="#F8ABAD"/>
<stop offset="0.1011" stop-color="#F8A6A8"/>
<stop offset="0.1557" stop-color="#F6979A"/>
<stop offset="0.2151" stop-color="#F57E82"/>
<stop offset="0.2782" stop-color="#F25C62"/>
<stop offset="0.3433" stop-color="#EF3138"/>
<stop offset="0.3708" stop-color="#ED1C24"/>
<stop offset="0.46" stop-color="#D1181E"/>
<stop offset="0.5169" stop-color="#C4161C"/>
<stop offset="0.6065" stop-color="#D1181E"/>
<stop offset="0.7472" stop-color="#ED1C24"/>
<stop offset="0.9607" stop-color="#F8ABAD"/>
<stop offset="1" stop-color="#F8ABAD"/>
</linearGradient>
<clipPath id="clip0_1654_1312">
<rect width="181" height="50" fill="white"/>
</clipPath>
</defs>
</svg>
