<svg width="170" height="12" viewBox="0 0 170 12" fill="none" xmlns="http://www.w3.org/2000/svg">
<path fill-rule="evenodd" clip-rule="evenodd" d="M0 11.4012H4.74498C5.53581 11.4012 9.09456 11.4671 9.09456 7.97422C9.09456 4.61318 5.60172 4.67909 4.74498 4.67909H3.09742V3.03152H8.17192V0.395419H0V11.4012ZM3.09742 9.16045V6.85386H4.41547C5.40401 6.85386 5.99713 7.11749 5.99713 8.04012C5.99713 8.89686 5.40401 9.22636 4.41547 9.22636H3.09742V9.16045ZM11.7966 11.4012H18.4527V8.76506H14.894V6.98568H18.1232V4.54727H14.894V2.96562H18.4527V0.329513H11.7966V11.4012ZM22.5387 0.329513V6.45846C22.5387 8.04013 22.341 8.89685 21.0229 8.89685C20.8252 8.89685 20.5616 8.83096 20.3639 8.76506V11.4012C20.8252 11.533 21.2206 11.533 21.6819 11.533C25.5702 11.533 25.702 8.96275 25.702 7.31519V2.96562H27.9427V11.4012H31.0401V0.329513H22.5387ZM35.7851 11.4012H38.8825V2.96562H41.3209V0.329513H33.3467V2.96562H35.7851V11.4012ZM42.5731 11.4012H45.9341L46.5272 9.48997H50.2837L50.8768 11.4012H54.1719L50.2178 0.329513H46.4613L42.5731 11.4012ZM48.4384 2.96562L49.6906 7.05158H47.1862L48.4384 2.96562ZM55.6218 11.4012H58.5874L59.3782 4.94269L61.2235 11.4012H63.2006L65.0458 4.94269L65.8367 11.4012H68.8023L67.1547 0.329513H64.0573L62.0802 7.11749L60.1031 0.329513H57.0057L55.6218 11.4012ZM76.9083 11.7307C80.9943 11.7307 82.8395 8.83094 82.8395 5.86533C82.8395 2.89971 80.9284 0 76.9083 0C72.8223 0 70.9771 2.89971 70.9771 5.86533C70.9771 8.83094 72.8883 11.7307 76.9083 11.7307ZM76.9083 9.02866C75.4585 9.02866 74.1404 7.97422 74.1404 5.79944C74.1404 3.69056 75.4585 2.5702 76.9083 2.5702C78.3582 2.5702 79.6762 3.62465 79.6762 5.79944C79.6762 7.97422 78.3582 9.02866 76.9083 9.02866ZM91.341 11.4012H94.4384V6.52435L97.404 11.4012H101.226L97.2063 5.73353L100.897 0.329513H97.3381L94.3725 5.14041V0.329513H91.2751V5.14041L88.3094 0.329513H84.7507L88.4413 5.73353L84.4212 11.4012H88.2436L91.2092 6.52435V11.4012H91.341ZM111.573 7.77652C110.98 8.36964 110.123 8.96275 108.937 8.96275C107.158 8.96275 106.103 7.6447 106.103 5.99714C106.103 4.15187 107.223 2.83382 108.937 2.83382C110.123 2.83382 110.98 3.49285 111.573 4.15187V0.922632C110.65 0.263606 109.53 0.0659066 108.542 0.0659066C105.51 0.0659066 102.94 2.24069 102.94 5.93123C102.94 9.48997 105.312 11.7966 108.607 11.7966C109.53 11.7966 110.585 11.6648 111.573 10.9398V7.77652ZM114.407 11.4012H121.063V8.76506H117.504V6.98568H120.734V4.54727H117.504V2.96562H121.063V0.329513H114.407V11.4012ZM123.963 11.4012H127.06V7.71061H128.642C131.805 7.71061 132.662 5.53582 132.662 4.02006C132.662 2.5043 131.805 0.329513 128.642 0.329513H123.963V11.4012ZM127.06 2.76792H127.917C129.235 2.76792 129.433 3.49284 129.433 4.02006C129.433 4.48138 129.301 5.27221 127.917 5.27221H127.06V2.76792ZM135.364 0.329513V11.4012H141.032C143.602 11.4012 144.656 9.88539 144.656 8.30373C144.656 6.26075 143.009 5.66763 142.284 5.46993C143.206 5.14041 143.997 4.34958 143.997 3.16334C143.997 2.3066 143.668 0.329513 140.702 0.329513H135.364ZM138.461 4.67909V2.50431H139.779C140.834 2.50431 141.229 3.03152 141.229 3.62464C141.229 4.02006 141.032 4.67909 139.779 4.67909H138.461ZM138.461 9.16045V6.85386H139.911C140.438 6.85386 141.559 6.85387 141.559 7.97422C141.559 9.16046 140.372 9.16045 139.911 9.16045H138.461ZM147.358 0.329513V11.4012H150.39L154.673 4.74499V11.4012H157.639V0.329513H154.673L150.39 6.98568V0.329513H147.358ZM169.106 7.77652C168.513 8.36964 167.656 8.96275 166.47 8.96275C164.691 8.96275 163.636 7.6447 163.636 5.99714C163.636 4.15187 164.756 2.83382 166.47 2.83382C167.656 2.83382 168.513 3.49285 169.106 4.15187V0.922632C168.183 0.263606 167.063 0.0659066 166.074 0.0659066C163.043 0.0659066 160.473 2.24069 160.473 5.93123C160.473 9.48997 162.845 11.7966 166.14 11.7966C167.063 11.7966 168.117 11.6648 169.106 10.9398V7.77652Z" fill="#333333"/>
</svg>
