<svg width="154" height="48" viewBox="0 0 154 48" fill="none" xmlns="http://www.w3.org/2000/svg">
<path fill-rule="evenodd" clip-rule="evenodd" d="M-15.106 39.2117H-10.361C-9.57014 39.2117 -6.0114 39.2776 -6.0114 35.7848C-6.0114 32.4237 -9.50424 32.4896 -10.361 32.4896H-12.0085V30.8421H-6.93404V28.206H-15.106V39.2117ZM-12.0085 36.971V34.6644H-10.6905C-9.70195 34.6644 -9.10883 34.928 -9.10883 35.8507C-9.10883 36.7074 -9.70195 37.0369 -10.6905 37.0369H-12.0085V36.971ZM-3.3094 39.2117H3.34677V36.5756H-0.21198V34.7962H3.01725V32.3578H-0.21198V30.7762H3.34677V28.1401H-3.3094V39.2117ZM7.43272 28.1401V34.269C7.43272 35.8507 7.23501 36.7074 5.91696 36.7074C5.71925 36.7074 5.45564 36.6415 5.25794 36.5756V39.2117C5.71925 39.3435 6.11467 39.3435 6.57599 39.3435C10.4642 39.3435 10.596 36.7733 10.596 35.1257V30.7762H12.8367V39.2117H15.9342V28.1401H7.43272ZM20.6791 39.2117H23.7766V30.7762H26.215V28.1401H18.2407V30.7762H20.6791V39.2117ZM27.4671 39.2117H30.8281L31.4213 37.3005H35.1777L35.7708 39.2117H39.066L35.1118 28.1401H31.3554L27.4671 39.2117ZM33.3324 30.7762L34.5846 34.8621H32.0803L33.3324 30.7762ZM40.5158 39.2117H43.4814L44.2723 32.7532L46.1175 39.2117H48.0946L49.9399 32.7532L50.7307 39.2117H53.6963L52.0488 28.1401H48.9513L46.9743 34.928L44.9972 28.1401H41.8998L40.5158 39.2117ZM61.8024 39.5412C65.8883 39.5412 67.7336 36.6415 67.7336 33.6759C67.7336 30.7103 65.8224 27.8105 61.8024 27.8105C57.7164 27.8105 55.8711 30.7103 55.8711 33.6759C55.8711 36.6415 57.7823 39.5412 61.8024 39.5412ZM61.8024 36.8392C60.3525 36.8392 59.0344 35.7848 59.0344 33.61C59.0344 31.5011 60.3525 30.3807 61.8024 30.3807C63.2522 30.3807 64.5703 31.4352 64.5703 33.61C64.5703 35.7848 63.2522 36.8392 61.8024 36.8392ZM76.235 39.2117H79.3324V34.3349L82.2981 39.2117H86.1204L82.1003 33.5441L85.7909 28.1401H82.2321L79.2665 32.951V28.1401H76.1691V32.951L73.2035 28.1401H69.6448L73.3353 33.5441L69.3152 39.2117H73.1376L76.1032 34.3349V39.2117H76.235ZM96.4671 35.5871C95.874 36.1802 95.0173 36.7733 93.831 36.7733C92.0516 36.7733 90.9972 35.4553 90.9972 33.8077C90.9972 31.9624 92.1175 30.6444 93.831 30.6444C95.0173 30.6444 95.874 31.3034 96.4671 31.9624V28.7332C95.5445 28.0742 94.4241 27.8765 93.4356 27.8765C90.4041 27.8765 87.8339 30.0512 87.8339 33.7418C87.8339 37.3005 90.2064 39.6071 93.5015 39.6071C94.4241 39.6071 95.4786 39.4753 96.4671 38.7504V35.5871ZM99.3009 39.2117H105.957V36.5756H102.398V34.7962H105.628V32.3578H102.398V30.7762H105.957V28.1401H99.3009V39.2117ZM108.857 39.2117H111.954V35.5212H113.536C116.699 35.5212 117.556 33.3464 117.556 31.8306C117.556 30.3148 116.699 28.1401 113.536 28.1401H108.857V39.2117ZM111.954 30.5785H112.811C114.129 30.5785 114.327 31.3034 114.327 31.8306C114.327 32.2919 114.195 33.0828 112.811 33.0828H111.954V30.5785ZM120.258 28.1401V39.2117H125.926C128.496 39.2117 129.55 37.6959 129.55 36.1143C129.55 34.0713 127.903 33.4782 127.178 33.2805C128.1 32.951 128.891 32.1601 128.891 30.9739C128.891 30.1171 128.562 28.1401 125.596 28.1401H120.258ZM123.355 32.4896V30.3149H124.673C125.728 30.3149 126.123 30.8421 126.123 31.4352C126.123 31.8306 125.926 32.4896 124.673 32.4896H123.355ZM123.355 36.971V34.6644H124.805C125.332 34.6644 126.453 34.6644 126.453 35.7848C126.453 36.971 125.267 36.971 124.805 36.971H123.355ZM132.252 28.1401V39.2117H135.284L139.567 32.5555V39.2117H142.533V28.1401H139.567L135.284 34.7962V28.1401H132.252ZM154 35.5871C153.407 36.1802 152.55 36.7733 151.364 36.7733C149.585 36.7733 148.53 35.4553 148.53 33.8077C148.53 31.9624 149.65 30.6444 151.364 30.6444C152.55 30.6444 153.407 31.3034 154 31.9624V28.7332C153.077 28.0742 151.957 27.8765 150.969 27.8765C147.937 27.8765 145.367 30.0512 145.367 33.7418C145.367 37.3005 147.739 39.6071 151.034 39.6071C151.957 39.6071 153.012 39.4753 154 38.7504V35.5871Z" fill="#333333"/>
<path fill-rule="evenodd" clip-rule="evenodd" d="M-39.2263 23.5273H153.012C153.539 23.5273 154 23.6591 154 23.8569C154 24.0546 153.539 24.1864 153.012 24.1864H-39.2263C-39.7535 24.1864 -40.2148 24.0546 -40.2148 23.8569C-40.1489 23.7251 -39.7535 23.5273 -39.2263 23.5273Z" fill="#333333"/>
</svg>
