<svg width="169" height="65" viewBox="0 0 169 65" fill="none" xmlns="http://www.w3.org/2000/svg">
<path fill-rule="evenodd" clip-rule="evenodd" d="M163.427 50.9829C163.239 51.4263 162.676 52.0308 161.551 52.0308C159.337 52.0308 159.337 52.0308 159.337 52.0308C159.337 46.2272 159.337 46.2272 159.337 46.2272C159.337 45.9854 159.6 45.6226 159.937 45.6226C161.738 45.6226 161.738 45.6226 161.738 45.6226C162.076 45.6226 163.089 45.7033 163.539 46.8317C163.802 47.4363 163.802 48.0005 163.802 48.8872C163.764 49.6932 163.764 50.3784 163.427 50.9829ZM167.516 43.406C166.24 42.0357 164.44 41.9551 163.502 41.9551C156.861 41.9551 156.861 41.9551 156.861 41.9551C155.323 41.9551 154.197 43.1239 154.197 44.4136C154.197 60.6556 154.197 60.6556 154.197 60.6556C159.3 60.6556 159.3 60.6556 159.3 60.6556C159.3 55.6178 159.3 55.6178 159.3 55.6178C163.051 55.6178 163.051 55.6178 163.051 55.6178C164.515 55.6178 166.541 55.5372 167.854 53.7638C168.867 52.2323 168.942 49.6126 168.942 48.4035C168.979 47.0735 168.904 44.8569 167.516 43.406Z" fill="#003358"/>
<path fill-rule="evenodd" clip-rule="evenodd" d="M143.655 45.6226C144.067 45.4614 144.818 45.3808 145.418 45.3808C145.681 45.3808 146.356 45.4614 146.769 45.4614C147.519 45.6226 147.707 46.066 147.707 46.3884C147.707 46.6302 147.519 47.1542 146.844 47.1542C143.129 47.1542 143.129 47.1542 143.129 47.1542C143.054 46.469 143.129 45.8645 143.655 45.6226ZM143.392 51.4666C143.129 51.1441 143.129 50.7008 143.129 50.3381C150.595 50.3381 150.595 50.3381 150.595 50.3381C151.008 50.3381 151.458 50.2575 151.871 49.935C152.734 49.3305 152.734 48.3229 152.734 47.4766C152.734 45.9451 152.546 43.8896 151.308 42.8014C150.22 41.9551 148.419 41.9551 145.643 41.9551C143.092 41.9551 140.466 41.9551 139.19 43.2045C138.027 44.4942 138.102 46.5093 138.102 49.0887C138.102 51.5472 138.29 52.9981 138.852 53.925C139.865 55.6984 141.629 55.6984 143.692 55.6984C152.246 55.6984 152.246 55.6984 152.246 55.6984C152.246 52.0308 152.246 52.0308 152.246 52.0308C145.643 52.0308 145.643 52.0308 145.643 52.0308C144.743 52.0711 143.805 52.1517 143.392 51.4666Z" fill="#003358"/>
<path fill-rule="evenodd" clip-rule="evenodd" d="M136.451 55.7387V41.9551H131.312V46.8317H126.847V41.9551H121.707V55.7387H126.847V50.4993H131.312V55.7387H136.451Z" fill="#003358"/>
<path fill-rule="evenodd" clip-rule="evenodd" d="M93.5688 45.6226C93.9815 45.4614 94.7693 45.3808 95.3696 45.3808C95.6323 45.3808 96.3076 45.4614 96.7578 45.4614C97.5456 45.6226 97.6957 46.066 97.6957 46.3884C97.6957 46.6302 97.6207 47.1542 96.8328 47.1542C93.0435 47.1542 93.0435 47.1542 93.0435 47.1542C92.9685 46.469 93.0811 45.8645 93.5688 45.6226ZM93.3437 51.4666C93.1561 51.1441 93.0811 50.7008 93.0811 50.3381C100.622 50.3381 100.622 50.3381 100.622 50.3381C101.035 50.3381 101.485 50.2575 102.01 49.935C102.798 49.3305 102.798 48.3229 102.798 47.4766C102.798 45.9451 102.723 43.8896 101.335 42.8014C100.209 41.9551 98.4085 41.9551 95.6698 41.9551C93.006 41.9551 90.4548 41.9551 89.1417 43.2045C87.8661 44.4942 88.0162 46.5093 88.0162 49.0887C88.0162 51.5472 88.0912 52.9981 88.6915 53.925C89.817 55.6984 91.5053 55.6984 93.5688 55.6984C102.31 55.6984 102.31 55.6984 102.31 55.6984C102.31 52.0308 102.31 52.0308 102.31 52.0308C95.6323 52.0308 95.6322 52.0308 95.6322 52.0308C94.6943 52.0711 93.7564 52.1517 93.3437 51.4666Z" fill="#003358"/>
<path fill-rule="evenodd" clip-rule="evenodd" d="M81.7883 55.7387V45.6226H86.8907V41.9551H71.5835V45.6226H76.6859V55.7387H81.7883Z" fill="#003358"/>
<path fill-rule="evenodd" clip-rule="evenodd" d="M70.2328 55.7387V41.9551H65.168V46.8317H60.7409V41.9551H55.676V55.7387H60.7409V50.4993H65.168V55.7387H70.2328Z" fill="#003358"/>
<path fill-rule="evenodd" clip-rule="evenodd" d="M48.06 51.1844C47.7974 51.5069 47.1971 52.1114 45.8465 52.1114C44.3082 52.1114 43.708 51.3457 43.5579 51.1844C43.3703 50.9426 43.1452 50.2575 43.1452 48.8469C43.1452 47.2348 43.4078 46.6705 43.5579 46.4287C43.8205 46.066 44.4208 45.5823 45.8465 45.5823C47.1971 45.5823 47.7974 46.066 48.06 46.4287C48.3226 46.7511 48.5852 47.4363 48.5852 48.8469C48.5477 49.7738 48.4727 50.6202 48.06 51.1844ZM51.9618 43.2851C50.4236 41.9551 47.9474 41.9551 45.8089 41.9551C43.5954 41.9551 41.1943 41.9551 39.6561 43.2851C37.9303 44.8166 37.8552 47.5169 37.8552 48.8469C37.8552 50.1769 37.9303 52.8772 39.6561 54.4087C41.1943 55.6581 43.5954 55.7387 45.8089 55.7387C47.9474 55.7387 50.4236 55.6581 51.9618 54.4087C53.6876 52.8772 53.7627 50.1769 53.7627 48.8469C53.7627 47.5169 53.6876 44.8166 51.9618 43.2851Z" fill="#003358"/>
<path fill-rule="evenodd" clip-rule="evenodd" d="M117.88 32.0812C117.88 28.5748 117.88 28.5748 117.88 28.5748C112.89 28.5748 112.89 28.5748 112.89 28.5748C112.14 28.5748 110.864 28.6554 110.264 27.6479C110.076 27.4867 109.851 26.8821 109.851 25.2297C109.851 24.5445 109.851 23.9803 110.039 23.4564C110.377 22.61 110.977 21.8442 112.665 21.8442C117.918 21.8442 117.918 21.8442 117.918 21.8442C117.918 18.3379 117.918 18.3379 117.918 18.3379C110.302 18.3379 110.302 18.3379 110.302 18.3379C108.688 18.3379 107.263 18.5797 106.25 19.7888C104.824 21.2397 104.711 23.3758 104.711 25.4312C104.711 27.4867 104.899 29.2197 105.912 30.4691C107.188 31.92 108.951 32.0812 110.076 32.0812H117.88Z" fill="#003358"/>
<path fill-rule="evenodd" clip-rule="evenodd" d="M102.761 32.0814V18.2979H97.6956V23.0939H93.156V18.2979H88.0161V32.0814H93.156V26.8824H97.6956V32.0814H102.761Z" fill="#003358"/>
<path fill-rule="evenodd" clip-rule="evenodd" d="M81.1879 27.5675C81.1879 27.7287 81.1879 28.0915 80.9253 28.2527C80.7377 28.3333 80.4 28.4139 80.1749 28.4139C77.5487 28.4139 77.5487 28.4139 77.5487 28.4139C76.9484 28.4139 76.6108 28.0915 76.6858 27.4869C76.6858 26.8824 77.0985 26.7212 77.6237 26.7212C81.1879 26.7212 81.1879 26.7212 81.1879 26.7212C81.1879 27.5675 81.1879 27.5675 81.1879 27.5675ZM85.0147 19.5069C84.4144 18.9024 83.2139 18.2979 81.6006 18.2979C72.4838 18.2979 72.4838 18.2979 72.4838 18.2979C72.4838 21.7236 72.4838 21.7236 72.4838 21.7236C79.3871 21.7236 79.3871 21.7236 79.3871 21.7236C79.9123 21.7236 80.5876 21.7236 80.9253 22.2475C81.1879 22.6103 81.1879 22.9327 81.1879 23.1745C81.1879 23.3357 81.1879 23.3357 81.1879 23.3357C75.2226 23.3357 75.2226 23.3357 75.2226 23.3357C74.3597 23.3357 73.5343 23.4163 72.7465 23.9403C71.6209 24.7866 71.5459 26.2375 71.5459 27.4466C71.5459 28.5751 71.6209 30.3484 72.6339 31.3157C73.3843 32.0008 74.3222 32.0814 75.1851 32.0814C83.1763 32.0814 83.1763 32.0814 83.1763 32.0814C84.0392 32.0814 84.8646 32.0008 85.5775 31.3157C86.1777 30.7112 86.2528 29.8648 86.2528 29.1796C86.2528 23.376 86.2528 23.376 86.2528 23.376C86.2903 22.2475 86.1402 20.6354 85.0147 19.5069Z" fill="#003358"/>
<path fill-rule="evenodd" clip-rule="evenodd" d="M64.8303 27.2451C64.5677 27.6884 64.08 28.3736 62.9544 28.3736C60.7409 28.3736 60.7409 28.3736 60.7409 28.3736C60.7409 22.57 60.7409 22.57 60.7409 22.57C60.7409 22.2475 61.0035 21.9654 61.3412 21.9654C63.1045 21.9654 63.1045 21.9654 63.1045 21.9654C63.3671 21.9654 64.4551 22.046 64.8678 23.1745C65.0179 23.6984 65.1304 24.3433 65.1304 25.1091C65.168 25.9554 65.0554 26.7212 64.8303 27.2451ZM68.8072 19.7488C67.5316 18.3785 65.7682 18.2979 64.9053 18.2979C58.2272 18.2979 58.2272 18.2979 58.2272 18.2979C56.8016 18.2979 55.676 19.4666 55.676 20.7563C55.676 36.9984 55.676 36.9984 55.676 36.9984C60.7409 36.9984 60.7409 36.9984 60.7409 36.9984C60.7409 31.9605 60.7409 31.9605 60.7409 31.9605C64.4551 31.9605 64.4551 31.9605 64.4551 31.9605C65.8058 31.9605 67.9067 31.7993 69.1073 30.1066C70.1953 28.5751 70.1953 25.8748 70.1953 24.7463C70.2328 23.4163 70.1578 21.1191 68.8072 19.7488Z" fill="#003358"/>
<path fill-rule="evenodd" clip-rule="evenodd" d="M25.6995 33.5325C21.8727 41.9558 24.6115 51.0643 32.5652 55.7394C34.7037 55.7394 34.7037 55.7394 34.7037 55.7394C34.7037 21.885 34.7037 21.885 34.7037 21.885C30.6894 25.5525 27.5754 29.4619 25.6995 33.5325ZM0 3.50684C0 14.6304 0 14.6304 0 14.6304C14.2567 14.6304 14.2567 14.6304 14.2567 14.6304C17.6333 10.3986 21.6476 6.73107 25.9621 3.50684C2.86236e-06 3.50684 0 3.50684 0 3.50684ZM5.85274 36.2731C5.85274 29.9052 8.14131 23.6986 11.5179 18.4189C-1.43118e-06 18.4189 0 18.4189 0 18.4189C0 55.7394 0 55.7394 0 55.7394C14.2567 55.7394 14.2567 55.7394 14.2567 55.7394C9.07925 50.5403 5.92777 43.6485 5.85274 36.2731ZM68.2444 3.50684C58.0021 6.65046 46.8594 12.0914 38.3805 18.7413C38.3805 37.1195 38.3805 37.1195 38.3805 37.1195C53.3124 37.1195 53.3124 37.1195 53.3124 37.1195C53.3124 14.6707 53.3124 14.6707 53.3124 14.6707C93.1561 14.6707 93.1561 14.6707 93.1561 14.6707C93.1561 3.54713 93.1561 3.54714 93.1561 3.54714H68.2444V3.50684Z" fill="#003358"/>
<path fill-rule="evenodd" clip-rule="evenodd" d="M65.4306 60.3334C17.7458 78.7519 -19.7343 33.0081 34.6287 0C72.8966 0 72.8966 0 72.8966 0C53.9127 4.55423 30.5768 17.4915 23.711 32.5648C16.8453 47.6783 27.4628 67.2252 65.4306 60.3334Z" fill="#003358"/>
<path fill-rule="evenodd" clip-rule="evenodd" d="M112.14 41.4311C115.329 41.4311 117.88 39.6578 117.88 37.0381C114.579 37.0381 114.579 37.0381 114.579 37.0381C114.579 38.1263 113.491 38.8114 112.14 38.8114C110.714 38.8114 109.626 38.1263 109.626 37.0381C106.325 37.0381 106.325 37.0381 106.325 37.0381C106.325 39.6578 108.838 41.4311 112.14 41.4311ZM117.017 41.8744C115.516 41.8744 115.066 42.3581 114.654 42.882C109.776 49.0484 109.776 49.0484 109.776 49.0484C109.701 49.129 109.514 49.3708 109.251 49.3708C109.063 49.3708 109.063 49.2902 109.063 49.0484C109.326 41.955 109.326 41.955 109.326 41.955C104.261 41.955 104.261 41.955 104.261 41.955C104.261 53.1996 104.261 53.1996 104.261 53.1996C104.261 55.5774 106.025 55.7386 107.113 55.7386C108.201 55.7386 108.801 55.658 109.626 54.5699C114.428 48.5647 114.428 48.5647 114.428 48.5647C114.616 48.3229 114.766 48.1214 114.954 48.1214C115.104 48.1214 115.104 48.2826 115.104 48.5647C114.879 55.5774 114.879 55.5774 114.879 55.5774C119.944 55.5774 119.944 55.5774 119.944 55.5774C119.944 44.5747 119.944 44.5747 119.944 44.5747C119.981 43.8896 119.906 41.8744 117.017 41.8744Z" fill="#003358"/>
</svg>
