<svg width="30" height="30" viewBox="0 0 30 30" fill="none" xmlns="http://www.w3.org/2000/svg">
<path d="M21.9721 5.5394L19.4721 4.22746C17.2776 3.07582 16.1803 2.5 15 2.5C13.8197 2.5 12.7224 3.07582 10.5279 4.22746L8.02787 5.5394C5.81068 6.70292 4.50738 7.38687 3.69962 8.30165L15 13.9518L26.3004 8.30165C25.4926 7.38687 24.1893 6.70292 21.9721 5.5394Z" fill="#2E31C5"/>
<path d="M27.1855 9.95543L15.9375 15.5794V27.38C16.8349 27.1565 17.856 26.6207 19.4721 25.7725L21.9721 24.4606C24.6617 23.0492 26.0065 22.3435 26.7533 21.0753C27.5 19.8072 27.5 18.2292 27.5 15.0731V14.9269C27.5 12.5611 27.5 11.082 27.1855 9.95543Z" fill="#2E31C5"/>
<path d="M14.0625 27.38V15.5794L2.81455 9.95543C2.5 11.082 2.5 12.5611 2.5 14.9269V15.0731C2.5 18.2292 2.5 19.8072 3.24675 21.0753C3.99349 22.3435 5.33828 23.0492 8.02787 24.4606L10.5279 25.7725C12.144 26.6207 13.1651 27.1565 14.0625 27.38Z" fill="#2E31C5"/>
</svg>
