<svg width="30" height="30" viewBox="0 0 30 30" fill="none" xmlns="http://www.w3.org/2000/svg">
<path fill-rule="evenodd" clip-rule="evenodd" d="M4.33058 4.33058C2.5 6.16117 2.5 9.10744 2.5 15C2.5 20.8926 2.5 23.8388 4.33058 25.6694C6.16117 27.5 9.10744 27.5 15 27.5C20.8926 27.5 23.8388 27.5 25.6694 25.6694C27.5 23.8388 27.5 20.8926 27.5 15C27.5 9.10744 27.5 6.16117 25.6694 4.33058C23.8388 2.5 20.8926 2.5 15 2.5C9.10744 2.5 6.16117 2.5 4.33058 4.33058ZM13.1789 9.39655C13.536 9.02162 13.5215 8.4282 13.1466 8.07112C12.7716 7.71404 12.1782 7.72852 11.8211 8.10345L8.92857 11.1406L8.17888 10.3535C7.8218 9.97852 7.22838 9.96404 6.85345 10.3211C6.47852 10.6782 6.46404 11.2716 6.82112 11.6466L8.24969 13.1466C8.42664 13.3323 8.672 13.4375 8.92857 13.4375C9.18515 13.4375 9.43051 13.3323 9.60745 13.1466L13.1789 9.39655ZM16.25 10.3125C15.7322 10.3125 15.3125 10.7322 15.3125 11.25C15.3125 11.7678 15.7322 12.1875 16.25 12.1875H22.5C23.0178 12.1875 23.4375 11.7678 23.4375 11.25C23.4375 10.7322 23.0178 10.3125 22.5 10.3125H16.25ZM13.1789 18.1466C13.536 17.7716 13.5215 17.1782 13.1466 16.8211C12.7716 16.464 12.1782 16.4785 11.8211 16.8534L8.92857 19.8906L8.17888 19.1034C7.8218 18.7285 7.22838 18.714 6.85345 19.0711C6.47852 19.4282 6.46404 20.0216 6.82112 20.3966L8.24969 21.8966C8.42664 22.0823 8.672 22.1875 8.92857 22.1875C9.18515 22.1875 9.43051 22.0823 9.60745 21.8966L13.1789 18.1466ZM16.25 19.0625C15.7322 19.0625 15.3125 19.4822 15.3125 20C15.3125 20.5178 15.7322 20.9375 16.25 20.9375H22.5C23.0178 20.9375 23.4375 20.5178 23.4375 20C23.4375 19.4822 23.0178 19.0625 22.5 19.0625H16.25Z" fill="#2E31C5"/>
</svg>
