<svg width="90" height="90" viewBox="0 0 90 90" fill="none" xmlns="http://www.w3.org/2000/svg">
<path d="M35.625 7.5C32.5184 7.5 30 10.0184 30 13.125V16.875C30 19.9816 32.5184 22.5 35.625 22.5H54.375C57.4816 22.5 60 19.9816 60 16.875V13.125C60 10.0184 57.4816 7.5 54.375 7.5H35.625Z" fill="#2E31C5"/>
<path fill-rule="evenodd" clip-rule="evenodd" d="M24.375 15.1373C19.6579 15.402 16.6799 16.1536 14.545 18.2885C11.25 21.5836 11.25 26.8869 11.25 37.4935V59.9935C11.25 70.6001 11.25 75.9034 14.545 79.1984C17.8401 82.4935 23.1434 82.4935 33.75 82.4935H56.25C66.8566 82.4935 72.1599 82.4935 75.455 79.1984C78.75 75.9034 78.75 70.6001 78.75 59.9935V37.4935C78.75 26.8869 78.75 21.5836 75.455 18.2885C73.3201 16.1536 70.3421 15.402 65.625 15.1373V16.875C65.625 23.0882 60.5882 28.125 54.375 28.125H35.625C29.4118 28.125 24.375 23.0882 24.375 16.875V15.1373ZM58.169 47.0561C59.3046 45.9963 59.3659 44.2165 58.3061 43.081C57.2463 41.9454 55.4665 41.8841 54.331 42.9439L40.1786 56.1528L35.669 51.9439C34.5335 50.8841 32.7538 50.9454 31.6939 52.081C30.6341 53.2165 30.6954 54.9963 31.831 56.0561L38.2596 62.0561C39.3401 63.0646 41.017 63.0646 42.0976 62.0561L58.169 47.0561Z" fill="#2E31C5"/>
</svg>
