<svg width="30" height="30" viewBox="0 0 30 30" fill="none" xmlns="http://www.w3.org/2000/svg">
<path fill-rule="evenodd" clip-rule="evenodd" d="M17.5 27.5H12.5C7.78595 27.5 5.42893 27.5 3.96447 26.0355C2.5 24.5711 2.5 22.214 2.5 17.5V12.5C2.5 7.78595 2.5 5.42893 3.96447 3.96447C5.42893 2.5 7.79837 2.5 12.5372 2.5C13.2947 2.5 13.9017 2.5 14.4125 2.52083C14.3957 2.62074 14.3869 2.72266 14.3865 2.82571L14.375 6.36871C14.3749 7.74009 14.3748 8.95205 14.5061 9.92895C14.6485 10.9878 14.9754 12.0466 15.8395 12.9107C16.7036 13.7748 17.7623 14.1016 18.8212 14.244C19.7981 14.3753 21.0101 14.3752 22.3814 14.3751L22.5 14.3751H27.4468C27.5 15.043 27.5 15.8626 27.5 16.9536V17.5C27.5 22.214 27.5 24.5711 26.0355 26.0355C24.5711 27.5 22.214 27.5 17.5 27.5ZM6.5625 18.125C6.5625 17.6072 6.98223 17.1875 7.5 17.1875H17.5C18.0178 17.1875 18.4375 17.6072 18.4375 18.125C18.4375 18.6428 18.0178 19.0625 17.5 19.0625H7.5C6.98223 19.0625 6.5625 18.6428 6.5625 18.125ZM6.5625 22.5C6.5625 21.9822 6.98223 21.5625 7.5 21.5625H14.375C14.8928 21.5625 15.3125 21.9822 15.3125 22.5C15.3125 23.0178 14.8928 23.4375 14.375 23.4375H7.5C6.98223 23.4375 6.5625 23.0178 6.5625 22.5Z" fill="#2E31C5"/>
<path d="M24.1896 9.52081L19.2412 5.06719C17.8314 3.79835 17.1264 3.16393 16.2615 2.83203L16.25 6.25013C16.25 9.19641 16.25 10.6696 17.1653 11.5848C18.0806 12.5001 19.5537 12.5001 22.5 12.5001H26.9751C26.5219 11.6199 25.7105 10.8896 24.1896 9.52081Z" fill="#2E31C5"/>
</svg>
