<svg width="90" height="90" viewBox="0 0 90 90" fill="none" xmlns="http://www.w3.org/2000/svg">
<path d="M53.2814 41.5995C56.0207 41.5995 58.2413 39.388 58.2413 36.6599C58.2413 33.9318 56.0207 31.7203 53.2814 31.7203C50.5421 31.7203 48.3215 33.9318 48.3215 36.6599C48.3215 39.388 50.5421 41.5995 53.2814 41.5995Z" fill="#2E31C5"/>
<path fill-rule="evenodd" clip-rule="evenodd" d="M12.9917 12.9917C7.5 18.4835 7.5 27.3223 7.5 45C7.5 62.6777 7.5 71.5165 12.9917 77.0082C18.4835 82.5 27.3223 82.5 45 82.5C62.6777 82.5 71.5165 82.5 77.0082 77.0082C82.5 71.5165 82.5 62.6777 82.5 45C82.5 27.3223 82.5 18.4835 77.0082 12.9917C71.5165 7.5 62.6777 7.5 45 7.5C27.3223 7.5 18.4835 7.5 12.9917 12.9917ZM53.2817 50.8205C61.1342 50.8205 67.5 44.4807 67.5 36.6602C67.5 28.8397 61.1342 22.5 53.2817 22.5C45.4291 22.5 39.0634 28.8397 39.0634 36.6602C39.0634 40.2826 40.7167 42.9171 40.7167 42.9171L23.5224 60.0411C22.7509 60.8095 21.6707 62.8073 23.5224 64.6514L25.5064 66.6272C26.2779 67.2858 28.2177 68.2079 29.8048 66.6272L32.1194 64.3221C34.4341 66.6272 37.0793 65.31 38.0713 63.9928C39.7246 61.6876 37.7406 59.3824 37.7406 59.3824L38.402 58.7238C41.5763 61.8852 44.3538 60.0411 45.3458 58.7238C46.9991 56.4187 45.3458 54.1135 45.3458 54.1135C45.1511 53.7257 44.8991 53.4521 44.6826 53.217C44.1637 52.6536 43.8486 52.3116 45.0151 51.1498L46.9992 49.1739C48.5863 50.4911 51.8488 50.8205 53.2817 50.8205Z" fill="#2E31C5"/>
</svg>
