<svg width="90" height="90" viewBox="0 0 90 90" fill="none" xmlns="http://www.w3.org/2000/svg">
<path d="M82.0841 26.8937C82.5 31.6243 82.5 37.5211 82.5 45C82.5 60.5012 82.5 69.206 78.7972 74.8174L56.4791 52.4993L82.0841 26.8937Z" fill="#2E31C5"/>
<path d="M74.8202 78.7953L52.5017 56.4768L26.8938 82.0841C31.6244 82.5 37.5212 82.5 45 82.5C60.5038 82.5 69.209 82.5 74.8202 78.7953Z" fill="#2E31C5"/>
<path fill-rule="evenodd" clip-rule="evenodd" d="M45 7.5C62.6777 7.5 71.5165 7.5 77.0082 12.9917C78.8977 14.8813 80.1372 17.167 80.9501 20.0726L20.0726 80.9501C17.167 80.1371 14.8813 78.8977 12.9917 77.0082C7.5 71.5165 7.5 62.6777 7.5 45C7.5 27.3223 7.5 18.4835 12.9917 12.9917C18.4835 7.5 27.3223 7.5 45 7.5ZM20.625 32.8399C20.625 39.5332 24.814 47.3436 31.3499 50.1367C32.8735 50.7878 34.6265 50.7878 36.1501 50.1367C42.6859 47.3436 46.875 39.5332 46.875 32.8399C46.875 26.0938 40.9987 20.625 33.75 20.625C26.5013 20.625 20.625 26.0938 20.625 32.8399Z" fill="#2E31C5"/>
<path d="M39.375 33.75C39.375 36.8566 36.8566 39.375 33.75 39.375C30.6434 39.375 28.125 36.8566 28.125 33.75C28.125 30.6434 30.6434 28.125 33.75 28.125C36.8566 28.125 39.375 30.6434 39.375 33.75Z" fill="#2E31C5"/>
</svg>
