<svg width="90" height="90" viewBox="0 0 90 90" fill="none" xmlns="http://www.w3.org/2000/svg">
<path fill-rule="evenodd" clip-rule="evenodd" d="M45.195 4.6875H44.805C41.4358 4.6874 38.6261 4.68731 36.3957 4.98718C34.0415 5.3037 31.916 5.99996 30.208 7.70797C28.5 9.41599 27.8037 11.5415 27.4872 13.8957C27.2722 15.4946 27.2114 19.318 27.1942 22.5962C19.6108 22.8439 15.0576 23.7292 11.8934 26.8934C7.5 31.2868 7.5 38.3579 7.5 52.5C7.5 66.6421 7.5 73.7132 11.8934 78.1066C16.2868 82.5 23.3578 82.5 37.4999 82.5H52.5C66.6421 82.5 73.7132 82.5 78.1066 78.1066C82.5 73.7132 82.5 66.6421 82.5 52.5C82.5 38.3579 82.5 31.2868 78.1066 26.8934C74.9424 23.7292 70.3892 22.8439 62.8058 22.5962C62.7886 19.318 62.7278 15.4946 62.5128 13.8957C62.1963 11.5415 61.5001 9.41599 59.792 7.70797C58.084 5.99996 55.9585 5.3037 53.6043 4.98718C51.3739 4.68731 48.5642 4.6874 45.195 4.6875ZM57.1797 22.507C57.1627 19.3321 57.1087 15.9153 56.938 14.6452C56.7053 12.9148 56.3033 12.1741 55.8146 11.6854C55.3259 11.1968 54.5853 10.7947 52.8548 10.562C51.0434 10.3185 48.615 10.3125 45 10.3125C41.385 10.3125 38.9566 10.3185 37.1452 10.562C35.4147 10.7947 34.6741 11.1968 34.1854 11.6854C33.6968 12.1741 33.2947 12.9148 33.062 14.6452C32.8913 15.9153 32.8373 19.3321 32.8203 22.507C34.2881 22.5 35.8457 22.5 37.5 22.5H52.5C54.1543 22.5 55.7119 22.5 57.1797 22.507ZM45 34.6875C46.5533 34.6875 47.8125 35.9467 47.8125 37.5V37.5384C51.8954 38.567 55.3125 41.7862 55.3125 46.25C55.3125 47.8033 54.0533 49.0625 52.5 49.0625C50.9467 49.0625 49.6875 47.8033 49.6875 46.25C49.6875 44.8099 48.0908 42.8125 45 42.8125C41.9092 42.8125 40.3125 44.8099 40.3125 46.25C40.3125 47.6901 41.9092 49.6875 45 49.6875C50.1935 49.6875 55.3125 53.2866 55.3125 58.75C55.3125 63.2138 51.8954 66.433 47.8125 67.4616V67.5C47.8125 69.0533 46.5533 70.3125 45 70.3125C43.4467 70.3125 42.1875 69.0533 42.1875 67.5V67.4616C38.1045 66.433 34.6875 63.2138 34.6875 58.75C34.6875 57.1967 35.9467 55.9375 37.5 55.9375C39.0533 55.9375 40.3125 57.1967 40.3125 58.75C40.3125 60.1901 41.9092 62.1875 45 62.1875C48.0907 62.1875 49.6875 60.1901 49.6875 58.75C49.6875 57.3099 48.0907 55.3125 45 55.3125C39.8065 55.3125 34.6875 51.7134 34.6875 46.25C34.6875 41.7862 38.1045 38.567 42.1875 37.5384V37.5C42.1875 35.9467 43.4467 34.6875 45 34.6875Z" fill="#2E31C5"/>
</svg>
